<?xml version="1.0" encoding="UTF-8" standalone="no"?>
<!-- Created with Inkscape (http://www.inkscape.org/) -->

<svg
   xmlns:dc="http://purl.org/dc/elements/1.1/"
   xmlns:cc="http://creativecommons.org/ns#"
   xmlns:rdf="http://www.w3.org/1999/02/22-rdf-syntax-ns#"
   xmlns:svg="http://www.w3.org/2000/svg"
   xmlns="http://www.w3.org/2000/svg"
   xmlns:sodipodi="http://sodipodi.sourceforge.net/DTD/sodipodi-0.dtd"
   xmlns:inkscape="http://www.inkscape.org/namespaces/inkscape"
   version="1.1"
   id="svg4781"
   xml:space="preserve"
   width="1556"
   height="369"
   viewBox="0 0 1556 369"
   sodipodi:docname="logo_primary.svg"
   inkscape:version="0.92.2 5c3e80d, 2017-08-06"><metadata
     id="metadata4787"><rdf:RDF><cc:Work
         rdf:about=""><dc:format>image/svg+xml</dc:format><dc:type
           rdf:resource="http://purl.org/dc/dcmitype/StillImage" /><dc:title></dc:title></cc:Work></rdf:RDF></metadata><defs
     id="defs4785" /><sodipodi:namedview
     pagecolor="#ffffff"
     bordercolor="#666666"
     borderopacity="1"
     objecttolerance="10"
     gridtolerance="10"
     guidetolerance="10"
     inkscape:pageopacity="0"
     inkscape:pageshadow="2"
     inkscape:window-width="1965"
     inkscape:window-height="1073"
     id="namedview4783"
     showgrid="false"
     inkscape:zoom="0.64"
     inkscape:cx="660.79671"
     inkscape:cy="151.89466"
     inkscape:window-x="810"
     inkscape:window-y="1004"
     inkscape:window-maximized="0"
     inkscape:current-layer="g4789"
     fit-margin-bottom="-0.3" /><g
     id="g4789"
     inkscape:groupmode="layer"
     inkscape:label="ink_ext_XXXXXX"
     transform="matrix(1.3333333,0,0,-1.3333333,0,369)"><g
       id="g4791"
       transform="matrix(0.3170047,0,0,0.3170047,71.943236,67.878547)"><path
         d="M 1915,444.766 V 0"
         style="fill:none;stroke:#211d1d;stroke-width:4.11327982;stroke-linecap:butt;stroke-linejoin:miter;stroke-miterlimit:4;stroke-dasharray:none;stroke-opacity:1"
         id="path4793"
         inkscape:connector-curvature="0" /><path
         d="m 1032.34,369.195 c -3.72,8.121 -9.34,14.067 -18.92,16.176 v 4.723 c 5.94,0 25.74,-0.727 30.29,-0.727 4.21,0 22.12,0.727 28.22,0.727 v -4.621 c -5.43,-1.039 -11.65,-4.071 -11.65,-9.629 0,-3.957 2.43,-9.387 7,-19.598 l 43.46,-98.723 41.01,98.879 c 3.25,7.985 5.57,14.121 5.57,18.852 0,5.25 -4.82,8.82 -11.62,10.219 v 4.621 c 5.43,0 18.64,-0.727 22.83,-0.727 3.82,0 19.5,0.727 25.48,0.727 v -4.723 c -10.25,-2.75 -16.49,-8.406 -22.18,-21.758 l -60.41,-142.48 h -12.71 l -66.37,148.062 v 0"
         style="fill:#231f20;fill-opacity:1;fill-rule:nonzero;stroke:none"
         id="path4795"
         inkscape:connector-curvature="0" /><path
         d="m 1616.41,235.176 c 6.09,-1.063 17.36,-1.762 26.26,-1.762 50.24,0 76.45,30.219 76.45,72.449 0,43.77 -27.61,74.582 -74.62,74.582 -9.61,0 -21.65,-0.722 -28.09,-1.8 z m -42.84,-8.574 c 10.11,1.781 15.63,5.781 15.63,15.011 v 129.871 c 0,8.969 -5.47,12.512 -15.2,14.329 v 4.652 c 5.61,0 24.17,-0.715 29.15,-0.715 8.25,0 31.5,1.766 49.28,1.766 59.87,0 96.19,-33.379 96.19,-84.239 0,-49.414 -37.78,-86.047 -99.52,-86.047 -17.79,0 -39.37,1.407 -47.63,1.407 -5,0 -22.27,-0.703 -27.9,-0.703 z m -281.71,62.863 -26.74,62.348 -24.95,-62.348 z m -107.1,-62.863 c 10.59,2.492 16.45,9.359 20.28,18.586 l 53.87,129.496 c 2.24,5.371 4.92,16.371 4.92,16.371 h 15.08 c 0,0 2.69,-11.039 4.94,-16.391 l 56.85,-129.828 c 4.05,-8.934 8.46,-15.383 19.77,-18.234 l -0.04,-4.317 c -6.16,0 -25.28,0.352 -29.64,0.352 -4.37,0 -22.63,-0.352 -28.8,-0.352 l 0.06,4.317 c 8.27,2.043 10.88,6.261 10.88,10.324 0,3.465 -1.44,7.355 -3.17,11.418 l -12.03,27.5 -63.05,0.019 -11.01,-27.66 c -1.28,-3.168 -2.73,-7.691 -2.73,-10.707 0,-4.633 2.42,-8.402 11.82,-10.894 l -0.03,-4.317 c -5.55,0 -19.77,0.352 -23.2,0.352 l -24.81,-0.352 z m -426.139,62.863 -26.766,62.348 -24.914,-62.348 z M 651.512,226.602 c 10.593,2.492 16.441,9.359 20.351,18.586 l 53.789,129.496 c 2.262,5.371 4.961,16.371 4.961,16.371 h 15.039 c 0,0 2.692,-11.039 4.961,-16.391 l 56.871,-129.828 c 4.039,-8.934 8.418,-15.383 19.75,-18.234 l -0.035,-4.317 c -6.176,0 -25.316,0.352 -29.656,0.352 -4.352,0 -22.613,-0.352 -28.777,-0.352 l 0.027,4.317 c 8.281,2.043 10.891,6.261 10.891,10.324 0,3.465 -1.422,7.355 -3.141,11.418 l -12.051,27.5 -63.027,0.019 -11.031,-27.66 c -1.258,-3.168 -2.739,-7.691 -2.739,-10.707 0,-4.633 2.426,-8.402 11.84,-10.894 l -0.015,-4.317 c -5.575,0 -20.227,0.352 -23.704,0.352 l -24.332,-0.352 z m 107.109,62.863 -26.766,62.348 -24.914,-62.348 z M 651.512,226.602 c 10.593,2.492 16.441,9.359 20.351,18.586 l 53.789,129.496 c 2.262,5.371 4.961,16.371 4.961,16.371 h 15.039 c 0,0 2.692,-11.039 4.961,-16.391 l 56.871,-129.828 c 4.039,-8.934 8.418,-15.383 19.75,-18.234 l -0.035,-4.317 c -6.176,0 -25.316,0.352 -29.656,0.352 -4.352,0 -22.613,-0.352 -28.777,-0.352 l 0.027,4.317 c 8.281,2.043 10.891,6.261 10.891,10.324 0,3.465 -1.422,7.355 -3.141,11.418 l -12.051,27.5 -63.027,0.019 -11.031,-27.66 c -1.258,-3.168 -2.739,-7.691 -2.739,-10.707 0,-4.633 2.426,-8.402 11.84,-10.894 l -0.015,-4.317 c -5.575,0 -20.227,0.352 -23.704,0.352 l -24.332,-0.352 z m -205.602,0 c 7.883,1.781 13.434,5.343 13.434,14.3 v 130.582 c 0,8.579 -5.18,12.18 -13.434,14.329 v 4.652 c 4.121,0 21.992,-0.715 26.289,-0.715 5.012,0 23.953,0.715 28.082,0.715 v -4.652 c -7.879,-1.817 -13.769,-5.368 -13.769,-14.329 v -54.558 h 97.32 v 54.558 c 0,8.961 -5.152,12.512 -13.367,14.329 v 4.652 c 4.09,0 22.68,-0.715 27.687,-0.715 4.301,0 22.52,0.715 26.641,0.715 v -4.652 c -7.891,-1.817 -13.77,-5.368 -13.77,-14.329 V 240.902 c 0,-8.586 5.508,-12.156 13.77,-14.3 v -4.317 c -4.121,0 -22.34,0.352 -26.641,0.352 -5.007,0 -23.597,-0.352 -27.687,-0.352 v 4.317 c 7.832,1.781 13.367,5.343 13.367,14.3 v 61.719 h -97.32 v -61.719 c 0,-8.957 5.535,-12.156 13.769,-14.3 v -4.317 c -4.129,0 -23.07,0.352 -28.082,0.352 -4.297,0 -22.168,-0.352 -26.289,-0.352 v 4.317 0"
         style="fill:#231f20;fill-opacity:1;fill-rule:nonzero;stroke:none"
         id="path4797"
         inkscape:connector-curvature="0" /><path
         d="m 894.605,310.586 c 5.325,-0.691 13.196,-1.055 21.008,-1.055 31.512,0 41.379,18.121 41.379,34.114 0,22.757 -15.137,36.8 -42.738,36.8 -5.66,0 -13.922,-0.742 -19.649,-1.812 z m 0,-68.492 c 0,-8.653 5.465,-13.348 15.59,-15.492 v -4.668 c -5.609,0 -23.941,0.722 -29.179,0.722 -4.493,0 -22.453,-0.722 -28.082,-0.722 v 4.668 c 9.39,1.781 14.906,6.468 14.906,15.492 v 128.98 c 0,7.91 -4.266,12.942 -14.875,14.727 v 4.664 c 5.637,0 23.367,-0.715 28.394,-0.715 8.215,0 31.555,1.344 40.754,1.344 40.25,0 62.653,-16.629 62.653,-45.102 0,-22.426 -16.723,-37.57 -42.364,-43.808 0,0 5.782,-3.399 11.629,-10.231 7.129,-8.34 26.739,-36.41 34.696,-46.012 7.898,-9.597 18.113,-20.597 28.913,-21.105 v -3.508 c -5.18,-1.164 -13.51,-2.117 -19.878,-2.117 -13.75,0 -24.637,4.805 -35.231,17.656 -9.168,11.117 -25.129,34.836 -34.32,46.516 -5.848,7.43 -12.898,13.301 -25.84,15.402 -2.539,0.43 -4.941,0.801 -7.766,1.11 v -57.801 0"
         style="fill:#231f20;fill-opacity:1;fill-rule:nonzero;stroke:none"
         id="path4799"
         inkscape:connector-curvature="0" /><path
         d="m 1425.17,310.586 c 5.38,-0.691 13.27,-1.055 21.06,-1.055 31.46,0 41.37,18.121 41.37,34.114 0,22.757 -15.14,36.8 -42.75,36.8 -5.63,0 -13.93,-0.742 -19.68,-1.812 z m 0,-68.492 c 0,-8.653 5.5,-13.348 15.61,-15.492 v -4.668 c -5.62,0 -23.93,0.722 -29.16,0.722 -4.49,0 -22.48,-0.722 -28.08,-0.722 v 4.668 c 9.37,1.781 14.9,6.468 14.9,15.492 v 128.98 c 0,7.91 -4.32,12.942 -14.89,14.727 v 4.664 c 5.63,0 23.36,-0.715 28.37,-0.715 8.24,0 31.6,1.344 40.78,1.344 40.27,0 62.65,-16.629 62.65,-45.102 0,-22.426 -16.71,-37.57 -42.34,-43.808 0,0 5.78,-3.399 11.64,-10.231 7.13,-8.34 26.74,-36.41 34.63,-46.012 7.96,-9.597 18.11,-20.597 28.97,-21.105 v -3.508 c -5.19,-1.164 -13.54,-2.117 -19.89,-2.117 -13.75,0 -24.67,4.805 -35.25,17.656 -9.14,11.117 -25.1,34.836 -34.28,46.516 -5.88,7.43 -12.93,13.301 -25.86,15.402 -2.58,0.43 -4.92,0.801 -7.8,1.11 v -57.801 0"
         style="fill:#231f20;fill-opacity:1;fill-rule:nonzero;stroke:none"
         id="path4801"
         inkscape:connector-curvature="0" /><path
         d="m 1686.1,57.1094 c 3.1,0 11.29,0.2734 13.59,0.2734 h 25.53 c 8.61,0 13.18,0 21.25,-0.8086 l 2.15,18.0156 -3.36,0.8125 c -3.5,-7.0039 -6.98,-10.625 -14.93,-10.625 h -23.39 v 68.8437 c 0,3.363 2.01,5.383 7.12,6.723 v 3.359 c -2.42,0 -12.22,-0.265 -14.25,-0.265 -2.27,0 -11.97,0.265 -14.24,0.265 v -3.359 c 5.1,-1.067 6.99,-3.36 6.99,-6.723 V 67.6094 c 0,-2.8321 -1.89,-6.3281 -6.46,-7.1406 z m -67.63,5.9258 c -20.03,0 -28.51,17.7382 -28.51,37.1128 0,19.356 8.48,37.645 28.51,37.645 20.03,0 28.37,-18.289 28.37,-37.645 0,-19.3746 -8.34,-37.1128 -28.37,-37.1128 z m 0,-7.2735 c 26.75,0 43.83,20.4414 43.83,44.3863 0,24.063 -17.08,44.903 -43.83,44.903 -26.9,0 -43.98,-20.977 -43.98,-44.903 0,-24.0738 17.08,-44.3863 43.98,-44.3863 z m -109.58,7.2735 c -20.04,0 -28.52,17.7382 -28.52,37.1128 0,19.356 8.48,37.645 28.52,37.645 20.03,0 28.36,-18.289 28.36,-37.645 0,-19.3746 -8.33,-37.1128 -28.36,-37.1128 z m 0,-7.2735 c 26.74,0 43.82,20.4414 43.82,44.3863 0,24.063 -17.08,44.903 -43.82,44.903 -26.91,0 -43.98,-20.977 -43.98,-44.903 0,-24.0738 17.07,-44.3863 43.98,-44.3863 z m -156.67,1.3477 c 2.43,0 10.64,0.2734 12.64,0.2734 2.29,0 11.03,-0.2734 13.32,-0.2734 v 3.3594 c -3.9,1.0859 -5.79,4.0351 -5.79,6.7304 v 31.8633 h 46.4 V 67.1992 c 0,-2.8242 -2.01,-5.7812 -5.65,-6.7304 v -3.3594 c 2.43,0 10.89,0.2734 13.17,0.2734 2.03,0 10.37,-0.2734 12.64,-0.2734 v 3.3594 c -3.76,1.0859 -5.78,4.1796 -5.78,6.7304 v 66.4218 c 0,2.688 2.15,5.785 5.78,6.723 v 3.359 c -2.42,0 -10.61,-0.265 -12.64,-0.265 -2.28,0 -10.88,0.265 -13.17,0.265 v -3.359 c 3.76,-1.067 5.65,-3.899 5.65,-6.723 V 106.73 h -46.4 v 26.891 c 0,2.688 2.16,5.785 5.79,6.723 v 3.359 c -2.42,0 -11.03,-0.265 -13.32,-0.265 -2,0 -10.35,0.265 -12.64,0.265 v -3.359 c 3.78,-1.067 5.79,-4.172 5.79,-6.723 V 67.1992 c 0,-2.6953 -2.15,-5.7812 -5.79,-6.7304 z m -27.56,18.4258 c -5.24,-10.2227 -15.87,-12.5 -26.89,-12.5 -20.17,0 -30.93,20.2929 -30.93,37.3748 0,20.84 11.3,37.383 30.93,37.383 10.49,0 20.7,-2.957 25.55,-12.508 h 3.36 l -0.81,15.469 c -1.48,0 -3.22,0.125 -6.99,0.937 -6.99,1.485 -13.85,3.36 -21.11,3.36 -28.51,0 -46.39,-19.629 -46.39,-44.641 0,-24.7459 16.13,-44.6483 46.39,-44.6483 7.81,0 14.92,1.75 22.45,3.3711 3.23,0.6719 6.32,1.0703 7,0.9453 l 0.8,15.4571 z M 1169.35,59.9336 c 9.01,-2.4219 16.68,-4.1719 24.76,-4.1719 17.6,0 30.38,9.4258 30.38,25.8203 0,8.6133 -4.17,14.5235 -10.09,18.1563 -7.8,4.7067 -18.29,8.2027 -26.09,12.6327 -4.57,2.563 -7.66,6.457 -7.66,12.914 0,7.664 6.86,13.445 16.81,13.445 8.87,0 17.49,-4.433 20.71,-12.636 h 3.36 l -0.53,17.48 c -8.08,-0.273 -15.74,1.477 -22.47,1.477 -16.8,0 -31.73,-7.395 -31.73,-24.738 0,-11.297 6.19,-17.754 13.72,-21.3755 8.2,-4.043 17.88,-7.1289 25.41,-12.1016 3.63,-2.4218 4.85,-6.3164 4.85,-10.8984 0,-9.4141 -7.27,-13.0469 -17.36,-13.0469 -4.57,0 -10.62,1.211 -14.38,3.6328 -2.41,1.6211 -5.38,5.3829 -6.73,9.5508 h -3.49 z m -124.1,-2.8242 c 3.09,0 11.29,0.2734 13.58,0.2734 h 25.55 c 8.6,0 13.17,0 21.24,-0.8086 l 2.15,18.0156 -3.36,0.8125 c -3.49,-7.0039 -6.99,-10.625 -14.92,-10.625 h -23.4 v 68.8437 c 0,3.363 2.02,5.383 7.13,6.723 v 3.359 c -2.42,0 -12.23,-0.265 -14.26,-0.265 -2.28,0 -11.96,0.265 -14.24,0.265 v -3.359 c 5.1,-1.067 6.98,-3.36 6.98,-6.723 V 67.6094 c 0,-2.8321 -1.88,-6.3281 -6.45,-7.1406 z m -81.887,32.2773 13.18,31.6013 12.23,-31.6013 z m -27.3,-32.2773 c 3.503,0 10.218,0.2734 11.968,0.2734 1.754,0 7.805,-0.2734 10.762,-0.2734 v 3.3594 c -3.902,1.3593 -5.25,3.2343 -4.98,4.9804 0.14,0.8008 1.078,3.6328 1.48,4.5703 l 4.844,11.6993 h 31.597 l 4.571,-11.6993 c 0.41,-0.9375 1.351,-3.7695 1.476,-4.5703 0.27,-1.7461 -0.125,-3.6211 -4.027,-4.9804 v -3.3594 c 3.359,0 11.696,0.2734 13.706,0.2734 2.02,0 9.95,-0.2734 13.33,-0.2734 v 3.3594 c -5.39,1.3593 -7.14,4.3085 -8.89,8.8867 L 986.895,134.16 c -1.079,2.824 -2.961,10.352 -2.961,10.352 h -9.141 c 0,0 -1.75,-7.528 -2.957,-10.352 L 944.941,69.3555 c -1.886,-4.5782 -3.496,-7.5274 -8.878,-8.8867 z m -21.11,18.4258 c -5.238,-10.2227 -15.863,-12.5 -26.887,-12.5 -20.171,0 -30.933,20.2929 -30.933,37.3748 0,20.84 11.301,37.383 30.933,37.383 10.489,0 20.707,-2.957 25.547,-12.508 h 3.36 l -0.813,15.469 c -1.476,0 -3.219,0.125 -6.984,0.937 -6.992,1.485 -13.856,3.36 -21.11,3.36 -28.511,0 -46.39,-19.629 -46.39,-44.641 0,-24.7459 16.125,-44.6483 46.39,-44.6483 7.797,0 14.918,1.75 22.446,3.3711 3.23,0.6719 6.324,1.0703 7.004,0.9453 l 0.8,15.4571 z M 784.125,57.1094 c 2.418,0 12.227,0.2734 14.516,0.2734 2.023,0 11.699,-0.2734 13.98,-0.2734 v 3.3594 c -5.098,1.3593 -7.117,3.3593 -7.117,6.7304 v 66.4218 c 0,3.363 2.019,5.383 7.117,6.723 v 3.359 c -2.418,0 -11.957,-0.265 -13.98,-0.265 -2.289,0 -12.235,0.265 -14.516,0.265 v -3.359 c 5.109,-1.067 6.988,-3.36 6.988,-6.723 V 67.1992 c 0,-3.3711 -1.879,-5.6445 -6.988,-6.7304 z m -90.902,80.0116 c 2.957,0.535 8.07,0.801 12.371,0.801 20.168,0 34.429,-17.883 34.429,-38.4572 0,-21.3671 -14.531,-35.7617 -35.101,-35.7617 -4.172,0 -8.742,0.2735 -11.699,0.8008 z m -20.84,-80.0116 c 3.09,0 11.289,0.2734 13.582,0.2734 3.898,0 15.598,-0.8086 24.066,-0.8086 26.891,0 45.453,17.6172 45.453,42.3633 0,25.5465 -18.293,45.3005 -45.453,45.3005 -8.468,0 -20.168,-0.8 -24.066,-0.8 -2.293,0 -10.625,0.265 -13.582,0.265 v -3.359 c 4.57,-1.067 6.449,-4.172 6.449,-6.723 V 67.6094 c 0,-2.8321 -1.879,-6.3281 -6.449,-7.1406 z m -90.09,0 c 3.094,0 11.289,0.2734 13.578,0.2734 h 25.555 c 8.597,0 13.179,0 21.238,-0.8086 l 2.16,15.3321 -3.504,0.8085 c -2.547,-4.8437 -6.586,-7.9375 -14.789,-7.9375 h -23.398 v 34.1602 h 20.84 c 3.226,0 5.519,-1.75 7.398,-4.9844 h 3.363 c 0,2.6875 -0.129,7.1329 -0.129,8.6059 0,1.484 0,5.781 0.266,8.476 h -3.5 c -1.75,-3.359 -4.027,-4.98 -7.398,-4.98 h -20.84 v 30.254 h 23.668 c 6.449,0 10.492,-2.821 12.375,-8.34 h 3.355 l 0.403,16.816 h -3.36 c -1.48,-0.808 -3.633,-1.082 -4.969,-1.082 h -52.312 v -3.359 c 4.57,-1.067 6.449,-4.035 6.449,-6.594 V 67.6094 c 0,-2.8321 -1.879,-6.3281 -6.449,-7.1406 z m -136.352,0 c 2.43,0 8.883,0.2734 10.903,0.2734 2.281,0 9.543,-0.2734 11.828,-0.2734 v 3.3594 c -5.649,1.2109 -7.399,4.3085 -7.129,6.5937 l 4.711,52.4415 30.25,-62.1212 h 5.918 L 528.242,117.754 532,67.0625 c 0.145,-2.4141 -2.008,-5.6445 -5.773,-6.5937 v -3.3594 c 2.414,0 10.617,0.2734 12.632,0.2734 2.293,0 10.762,-0.2734 13.043,-0.2734 v 3.3594 c -3.757,1.0859 -5.636,3.9062 -5.781,6.7304 l -4.57,64.5388 c -0.27,4.309 1.48,7.539 5.113,8.606 v 3.359 c -3.359,0 -6.461,-0.265 -8.609,-0.265 -2.012,0 -4.7,0.265 -7.801,0.265 L 502.152,78.0977 470.281,143.703 c -2.957,0 -6.047,-0.265 -8.054,-0.265 -2.164,0 -5.254,0.265 -8.614,0.265 v -3.359 c 3.758,-1.067 5.649,-4.297 5.239,-8.469 l -5.778,-64.5391 c -0.273,-2.5586 -3.23,-5.9179 -7.133,-6.8671 v -3.3594 0"
         style="fill:#a41930;fill-opacity:1;fill-rule:nonzero;stroke:none"
         id="path4803"
         inkscape:connector-curvature="0" /><path
         d="M 362.984,313.711 H 4.67188 v 20.883 H 362.984 Z M 182.371,441.965 1.43359,441.926 1.05469,297.184 C 1.05469,119.746 178.984,6.71094 180.785,5.57813 l 0.574,-0.36329 c 0.457,0.03907 1.582,0.79297 1.582,0.79297 C 213.172,25.7813 363.992,132.773 363.992,296.285 l 0.039,145.348 c -0.379,0.379 -181.66,0.332 -181.66,0.332 v 0"
         style="fill:#a41930;fill-opacity:1;fill-rule:nonzero;stroke:none"
         id="path4805"
         inkscape:connector-curvature="0" /><path
         d="m 180.613,97.5117 c 0.25,0 0.731,-0.0195 0.731,-0.0195 -0.129,0 -0.539,0.0273 -0.731,0.0195 z m -2.89,25.5473 c 0,-0.293 0.07,-0.586 0.179,-0.918 -0.109,0.32 -0.062,0.672 -0.16,0.996 -0.008,-0.032 -0.019,-0.071 -0.019,-0.078 z m -86.43,51.269 c 0.0703,0 0.1133,0.008 0.1797,0.008 -0.0664,0 -0.0664,-0.008 -0.1797,-0.008 z m 51.609,15.41 c 0.039,0.313 0.082,0.418 0.082,0.457 0,0.008 -0.011,0.008 -0.019,0.02 -0.031,-0.235 -0.063,-0.477 -0.063,-0.477 z m -0.218,0.508 c 0,0 0.089,0.039 0.097,0.039 -0.086,0.02 -0.16,0.02 -0.351,0.176 z m 57.769,40.246 c 0,-0.078 0.192,-0.027 0.352,-0.531 -0.094,0.273 -0.055,0.602 -0.133,0.875 -0.149,-0.211 -0.219,-0.313 -0.219,-0.344 z m -47.043,32.391 c 0.403,0.512 0.66,0.578 0.66,0.922 v 0.027 c -0.218,-0.277 -0.476,-0.715 -0.66,-0.949 z M 65.9609,266 c 0.3633,0.16 0.7032,0.113 1.0664,0.211 -0.3632,0 -0.7343,-0.066 -1.0664,-0.211 z m 19.0743,-3.758 v 0 c 0,0 0,-0.012 0,-0.019 z m -6.25,34.723 c -0.0508,-0.223 -0.4493,-2.254 -0.4493,-2.254 -0.2851,-1.387 -1.1836,-2.356 -2.5937,-2.109 l -5.1094,0.878 c -2.0976,0.575 -3.9101,1.043 -5.5898,0.458 -0.7071,-0.504 -1.9102,-1.454 -2.8907,-2.606 0.3516,-0.16 0.8321,-0.379 0.8321,-0.379 1.4375,-0.547 3.8515,-1.461 4.4726,-4.371 0.0586,-2.215 1.3555,-4.019 2.5,-5.609 l 0.8985,-1.282 c 0.3789,-0.535 0.6093,-1.039 0.6093,-1.535 0,-0.41 -0.1601,-0.82 -0.5234,-1.23 l -2.3867,-2.77 c 0,0 -1.3711,-1.468 -1.3828,-1.48 0,-0.063 -1.1094,-2.805 -1.7461,-4.422 0.5273,-0.977 1.125,-1.883 1.7851,-1.988 2.1524,0.515 4.1407,0.25 5.7618,-0.145 l 3.3711,-0.398 c -0.1836,0.019 0.8281,0.019 0.6367,0.011 l 1.3437,0.121 c 1.5078,0.219 3.5703,0.508 5.211,-0.832 0,0 1.5273,-3.281 1.6406,-3.507 0.3164,-1.024 0.5742,-2.043 0.5742,-2.969 0,-1.344 -0.2383,-2.567 -0.4492,-3.652 l -0.3047,-1.942 c -0.0664,-0.379 -0.2422,-0.941 -0.4492,-1.258 -3.2149,-4.683 -7.586,-8.414 -12.6328,-10.82 0.332,0.191 0.3789,0.23 0.3789,0.23 -0.0586,-0.07 -0.1016,-0.292 -0.1016,-0.582 0,-0.089 0.043,-0.199 0.043,-0.289 0.6719,-0.531 2.6172,-0.339 4.0195,-0.171 l 1.3672,0.164 c 2.3359,0.105 4.3594,0.859 6.5156,1.66 l 6.9375,1.879 c 1.211,0.328 2.0586,-0.325 2.6211,-1.442 1.3086,-2.613 2.8555,-4.511 4.25,-5.199 -0.1133,0.086 0.1055,0.172 1.2695,1.156 1.3512,1.145 3.5982,3.063 6.9882,1.782 0.242,-0.102 0.473,-0.219 0.68,-0.379 2.293,-1.758 3,-4.258 3.558,-6.27 0.43,-1.488 0.793,-2.769 1.664,-3.648 0.399,-0.391 0.657,-0.922 0.735,-1.485 0.047,-0.25 0.062,-0.496 0.062,-0.726 0,-2.614 -2.25,-3.59 -3.031,-3.934 l -0.43,-0.203 c -0.218,-0.105 -0.449,-0.32 -0.687,-0.371 l -5.68,-0.938 c -1.98,-0.144 -3.6013,-0.437 -4.8631,-1.082 0.211,-0.254 0.2657,-0.468 0.6836,-0.695 2.6755,-1.418 6.0355,-1.953 9.6015,-2.508 l 1.938,-0.312 c -0.114,0.008 4.437,0.144 4.437,0.144 l 7.152,-0.195 c 0.95,-0.027 1.5,-0.516 1.95,-1.348 0.441,-0.84 0.109,-1.797 -0.399,-2.605 l -1.183,-1.887 c -0.192,-0.312 -0.45,-0.574 -0.754,-0.793 l -11.582,-7.793 c -0.469,-0.25 -6.852,-2.508 -6.852,-2.508 l -8.9413,-3.523 c -0.0976,-0.031 -0.5078,-0.219 -0.6094,-0.234 -5.2187,-1.348 -8.7812,1.519 -11.6406,3.835 -2.0469,1.661 -3.8086,3.079 -5.8398,2.942 -2.1211,-0.012 -3.4492,-0.527 -5.0781,-1.965 -0.5274,-0.535 -0.7266,-1.453 -0.7266,-2.371 0,-0.313 0.0586,-0.617 0.0976,-0.922 0.2071,-0.086 0.5586,-0.23 0.5586,-0.23 1.0704,-0.383 3.5821,-1.289 3.5821,-4.407 -0.1446,-4.031 -1.8242,-7.226 -3.4532,-10.332 -1.4062,-2.675 -2.7382,-5.203 -2.9296,-8.047 -0.0313,-0.195 -0.0391,-0.378 -0.0391,-0.566 0,-0.594 0.1211,-1.133 0.457,-1.258 0.293,-0.148 0.3321,-0.168 0.3321,-0.168 0.2109,-0.058 0.7187,0.098 0.8789,0.266 0.0117,0.008 0.6992,1.074 0.6992,1.074 0.6445,1.172 1.7148,3.125 4.4453,3.66 0.2656,0.059 0.5352,0.059 0.8086,0.039 4.6406,-0.535 7.207,-0.027 8.8672,1.758 0.4023,0.43 0.9336,0.715 1.5,0.82 1.4023,0.223 2.8711,-0.203 4.0429,-1.191 1.168,-0.996 1.8711,-2.402 1.8711,-3.769 0,0 0.0586,-0.672 0.1055,-1.239 2.7852,0.496 4.7813,3.067 7.0703,6.973 l 0.9223,1.543 c 0.347,0.574 1.136,1.023 1.789,1.219 l 1.886,0.527 c 2.164,0.715 5.125,1.672 8.036,-0.195 0.582,-0.371 0.992,-0.957 1.144,-1.61 0.164,-0.715 0.246,-1.379 0.246,-2.043 0,-2.468 -1.051,-4.55 -1.933,-6.289 0,0 -0.45,-1.152 -0.848,-2.136 4.449,1.015 7.59,4.863 10.848,9.05 l 1.964,2.473 c 0.598,1.414 1.985,4.277 5.59,4.277 0.258,0 0.516,-0.031 0.766,-0.117 1.523,-0.461 2.211,0.008 4.351,3.043 l 3.5,3.918 c 0.5,0.547 0.782,0.481 1.528,0.481 h 1.433 c 0.696,0 1.305,0.085 1.821,-0.403 0.488,-0.488 0.707,-0.801 0.707,-1.484 0,-0.012 -0.008,-3.399 -0.008,-3.399 0,0 -0.02,-0.117 -0.02,-0.164 0.411,0.157 2.668,1.004 3.489,1.309 0.117,0.066 4.898,3.035 4.898,3.035 0.621,0.371 1.504,0.449 2.192,0.273 l 17.988,-4.667 c 3.664,-1.375 4.359,-3.907 4.359,-6.016 0,-0.801 -0.086,-1.531 -0.168,-2.129 -0.097,-0.691 -0.156,-1.238 -0.156,-1.66 0,-0.508 0.086,-0.828 0.309,-1.055 0.5,-0.508 0.769,-1.18 0.769,-1.875 0,-0.34 -0.074,-0.691 -0.211,-1.023 -0.73,-1.711 -2.601,-3.742 -7.39,-3.742 -0.071,0 -9.118,-0.508 -9.118,-0.508 -7.523,-0.137 -14.613,-0.274 -19.781,-5.137 0,-0.02 -4.91,-4.922 -4.91,-4.922 -0.469,-0.469 -1.109,-0.75 -1.777,-0.769 -3.512,-0.098 -6.106,-1.778 -9.114,-3.711 -2.711,-1.758 -5.55,-3.528 -9.179,-4.2 -2.641,-1.457 -5.59,-1.476 -8.024,-1.367 -2.144,0.086 -3.426,0.039 -4.308,-0.383 2.343,-2.82 6.683,-4.14 10.683,-5.234 0.371,-0.137 2.238,-0.379 2.238,-0.379 1.93,-0.109 4.852,-0.254 6.274,-3.105 0.144,-0.293 0.238,-0.606 0.266,-0.918 0.242,-2.434 0.691,-3.399 1.632,-3.789 0.168,0.105 0.41,0.222 0.41,0.222 0.907,0.547 3.329,2.004 5.801,-0.136 0.41,-0.43 4.278,-4.207 4.278,-4.207 l 4.718,-4.875 c 0.813,-0.829 0.661,-1.668 0.102,-2.704 -2.102,-3.859 -6.27,-3.183 -8.762,-2.785 l -2.058,0.246 c -0.192,0.243 -2.692,-0.148 -2.692,-0.148 -3.879,-0.703 -9.191,-1.641 -12.816,2.773 0.105,-0.136 0.347,-0.351 0.476,-0.449 l -3.578,3 c -2.91,2.598 -5.461,4.785 -9.008,4.891 -3.691,-1.055 -5.3629,-2.176 -5.7027,-4.102 -0.0117,-0.078 -0.0195,-0.144 -0.0195,-0.156 0.0078,0 0.9023,-0.957 0.9023,-0.957 l 1.5469,-1.699 c 0.4218,-0.457 0.582,-0.926 0.582,-1.504 0,-0.137 -0.0117,-0.281 -0.0312,-0.438 -0.0899,-0.761 -0.6368,-1.289 -1.2774,-1.711 -3.0312,-2.019 -6.4101,-5.086 -6.4101,-8.711 0,-0.468 0.0585,-0.945 0.1796,-1.425 0.0079,0.031 0.1563,-0.301 0.2774,-0.555 0.3437,0.098 1.164,0.332 1.164,0.332 1.3555,0.508 3.418,1.285 5.7735,-0.012 0.793,-0.429 1.2812,-1.062 1.3555,-1.972 l 0.1992,-2.762 c 0.1172,-3.078 0.4961,-4.492 1.4885,-5.254 0.679,0.281 1.441,0.586 1.441,0.586 2.051,1.055 5.168,2.664 8.797,0 0.641,-0.246 1.602,0.184 3.703,1.375 l 3.418,1.613 c 0.36,0.164 0.391,0.117 0.781,0.117 6.356,0 8.918,-5.531 10.61,-9.191 0,0 0.011,-0.0274 0.019,-0.0391 0.086,-0.0664 0.219,-0.1758 0.219,-0.1758 2.824,-2.1875 5.172,-3.7304 7.234,-3.164 0.086,0.2851 0.227,0.5195 0.227,0.8711 0,0.5937 -0.109,1.3086 -0.258,2.1875 -0.14,0.8007 -0.301,1.7968 -0.301,2.8323 0,2.175 0.743,4.605 4.028,6.179 0.41,0.149 6.304,0.567 6.304,0.567 l 3.739,0.117 c 0.105,0 0.679,0.059 0.785,0.051 5.504,-0.52 9.883,-0.606 11.812,3.261 0.082,0.157 3.942,6.739 4.571,7.813 0.14,0.742 0.859,4.5 0.859,4.5 0.18,0.957 0.879,1.75 1.82,2.031 2.043,0.625 4.02,-0.105 5.621,-0.703 0,0 0.832,-0.242 1.372,-0.398 -0.922,3.093 -1.61,6.187 -1.61,9.402 0,1.602 0.117,3.234 0.336,4.895 1.192,4.539 3.141,8.14 5.703,10.71 0.758,0.762 1.891,0.997 2.871,0.598 l 1.188,-0.48 c 0.82,-0.34 1.398,-0.977 1.57,-1.844 l 1.156,-5.899 c 0.676,-3.847 1.305,-7.484 2.903,-10.812 0.265,-0.547 0.39,-0.77 0.238,-1.367 l -2.168,-8.77 -1.848,-6.941 C 186.383,106.777 182,101.496 175.91,98.4492 c 0.067,-0.0312 -0.285,-0.5664 -0.168,-0.8398 0.074,-0.1172 1.324,-0.0586 2.344,-0.0117 0,0 1.559,-0.0469 2.465,-0.0782 6.754,0.8789 12.972,4.0935 17.515,9.0745 0.668,0.73 1.688,1.035 2.645,0.769 1.336,-0.359 2.383,0.168 4.113,1.153 2.09,1.191 5.246,2.98 9.071,0.695 1.507,-1.125 3.66,-0.949 5.929,-0.754 3.559,0.285 9.5,0.781 11.11,-6.102 0.043,-0.156 0.015,-0.929 0.027,-1.105 l 0.152,-3.1914 c 0.399,-3.2813 1.141,-9.3867 -5.363,-11.1445 -0.535,-0.1368 -0.574,-0.2618 -1.09,-0.0469 l -6.719,2.5 c -5.226,2.5586 -7.621,3.3008 -10.257,0.2422 -0.637,-0.6328 -1.411,-1.5625 -1.059,-2.2735 0.898,-1.5625 3.18,-5.5195 -0.172,-8.3828 0.223,0.1875 0.41,0.4219 0.559,0.6758 l -0.36,-0.6133 c -1.699,-2.8711 -2.839,-5.0625 -2.058,-7.0039 -0.008,0.0586 0.336,-0.5664 2.652,-0.0586 2.719,1.1328 5.574,0.0196 7.863,-0.8672 l 3.286,-0.957 c 0.32,-0.1094 1.16,-0.3437 1.418,-0.5508 l 1.042,-0.8164 c 2.149,-1.6914 4.215,-3.1445 6.418,-3.4179 0.11,0.2617 0.211,0.496 0.211,0.496 l 1.461,2.8633 c 0.336,0.3516 4.418,2.3711 4.418,2.3711 2.719,0.9492 2.996,1.2969 2.996,2.3164 0.813,4.3438 3.797,8.2032 8.055,10.8203 0.371,0.2344 1.117,0.3516 1.57,0.3594 0.938,0.0586 3.961,1.0274 5.75,2.2969 -0.07,0.0664 -0.3,0.3125 -0.3,0.3125 l -1.082,1.1484 c -0.321,0.3438 -0.825,1.0469 -0.938,1.5078 -0.133,0.625 -0.199,1.2383 -0.199,1.8243 0,3.0273 1.629,5.5664 2.976,7.6679 1.352,2.1099 2.098,3.4379 2.098,4.6759 0,0.773 -0.285,1.484 -0.894,2.344 -0.231,0.312 -0.321,0.41 -0.391,0.8 l -0.77,4.317 c -0.339,2.746 -0.632,5.148 -2.55,6.613 -0.09,0.078 -4.68,2.41 -4.68,2.41 l -5.074,2.422 c -0.918,0.442 -1.203,1.203 -1.203,2.227 0,2.297 1.457,3.652 4.347,4.015 l 0.641,0.106 c 3.312,0.91 6.051,-0.137 8.238,-0.985 2.223,-0.839 3,-0.851 3.598,-0.527 -0.328,1.844 -2.18,3.856 -3.848,5.527 -2.898,2.079 -6.508,2.938 -10.344,3.856 -5.82,1.398 -11.847,2.844 -15.855,8.449 -0.328,0.457 -0.488,0.985 -0.488,1.524 0,0.691 0.257,1.367 0.781,1.875 l 0.707,0.703 c 0.629,0.633 1.547,0.906 2.422,0.711 7.269,-1.582 14.445,-0.028 19.207,4.132 2.851,3.75 6.48,8.262 12.023,10.125 3.957,3.145 4.789,8.293 4.789,15.071 0.297,3.406 1.707,6.347 4.078,8.719 0.079,0.078 5.18,2.511 5.18,2.511 1.668,0.504 2.289,0.809 2.613,1.102 -3.035,1.504 -6.375,2.871 -9.914,2.519 -0.543,-0.047 -1.066,0.051 -1.539,0.325 -1.57,0.859 -2.039,2.05 -2.152,2.898 -0.02,0.168 -0.039,0.332 -0.039,0.488 0,1.77 1.32,3.067 2.129,3.86 l 0.41,0.418 c 0.172,0.175 0.449,0.507 0.66,0.625 l 5.684,3.254 c 7.445,3.964 12.035,6.875 12.035,13.015 0,0.059 0,0.137 0,0.215 -0.125,0.293 -0.184,0.449 -0.258,0.617 -0.879,-0.363 -1.711,-0.773 -2.719,-1.582 l -3.922,-2.648 c -3.597,-2.039 -7.757,-2.93 -11.765,-3.797 -3.973,-0.852 -7.731,-1.66 -10.86,-3.606 -0.421,-0.261 -0.906,-0.39 -1.394,-0.39 -1.488,0 -2.746,0.812 -3.301,2.129 -0.199,0.488 -0.285,1.007 -0.285,1.523 0,1.25 0.523,2.492 1.25,3.215 1.219,1.707 3.215,2.82 4.988,3.816 2.117,1.192 3.449,2.004 4.129,3.614 l 0.731,2.05 c 1.078,3.215 2.5,7.125 6.488,8.813 0.512,0.269 3.613,1.891 3.613,1.891 0.778,0.304 0.977,0.621 1.469,0.89 -0.242,0.129 -0.199,0.188 -0.539,0.313 -6.313,1.945 -12.422,-2.911 -15.488,-5.985 -0.25,-0.238 -0.524,-0.429 -0.832,-0.558 l -2.364,-0.989 c -4.105,-1.687 -8.359,-3.453 -11.168,-6.425 -0.3,-0.313 -0.668,-0.567 -1.078,-0.692 -1.199,-0.414 -2.613,-0.187 -3.68,0.586 -1.07,0.781 -1.691,1.981 -1.691,3.328 -0.992,9.75 6.777,16.832 13.035,22.532 l 1.504,1.378 c 0.18,0.164 0.918,0.512 1.129,0.614 l 3.82,1.98 c 3.012,1.891 6.743,4.238 11.411,2.121 3.652,-1.945 6.574,-3.285 9.664,-2.261 2.007,0.738 3.324,2.519 4.847,4.597 1.461,1.992 3.121,4.231 5.719,5.801 2.73,0.965 4.93,0.262 6.699,-0.301 0.75,-0.238 2.145,-0.687 2.52,-0.558 0,0.011 0.34,0.582 0.34,0.582 0.058,0.269 0.078,0.519 0.078,0.765 0,1.754 -1.203,3.414 -3.075,5.782 l -2.242,3.062 c -0.312,0.41 -0.437,0.852 -0.437,1.289 0,0.352 0.078,0.699 0.207,1.059 0.738,1.882 1.082,3.84 1.082,5.793 0,4.597 -1.961,9.125 -5.555,12.3 -1.027,0.536 -3.398,1.637 -5.785,1.528 0.297,-0.481 0.785,-1.281 0.785,-1.281 l 2.289,-4.93 c 0.055,-0.602 0.074,-1.18 0.074,-1.75 0,-10.82 -9.347,-15.5 -16.941,-19.301 l -6.527,-3.559 c -15.328,-7.679 -35.489,-20.019 -36.614,-40.218 0.211,-10.383 4.532,-20.313 12.481,-28.496 0.133,-0.137 0.305,-0.364 0.391,-0.52 l 2.812,-4.414 c 3.148,-4.727 6.625,-9.98 6.625,-16.25 0,-1.523 -0.211,-3.105 -0.668,-4.766 -2.68,-6.16 -9.617,-6.16 -12.23,-6.16 -15.079,0.996 -23.286,16.199 -29.278,27.293 l -0.918,1.711 c -0.093,0.195 -1.23,2.676 -1.23,2.676 -1.66,3.504 -3.387,7.137 -3.805,11.562 -0.066,0.782 0.199,1.563 0.762,2.11 0.719,0.73 2.68,2.195 5.461,0.34 0.308,-0.235 3.019,-4.551 3.019,-4.551 0.348,-0.809 0.567,-1.199 0.793,-1.543 0.239,0.754 0.688,1.457 0.688,2.266 0,2.628 -1.11,5.507 -2.192,8.32 l -0.336,0.89 c -0.812,1.329 -2.433,2.782 -4.152,4.305 -2.25,2.012 -4.578,4.094 -5.953,7.129 -0.117,0.289 -0.199,0.586 -0.219,0.91 -0.019,0.137 -0.019,0.285 -0.019,0.418 0,3.59 3.187,4.457 4.418,4.778 0,0 0.472,0.16 0.754,0.253 -1.059,3.817 -1.75,7.836 -1.75,12.032 0,2.035 0.128,4.093 0.386,6.156 0,0.066 0.008,0.121 0.008,0.152 0,0.188 -0.055,0.188 -0.055,0.219 0,0.02 0.039,0.059 0.188,0.219 l 3.41,3.648 c 1.074,0.664 1.133,0.789 1.133,1.039 -1.152,4.422 -1.5,8.832 -1.5,13.137 0,1.758 0.051,3.504 0.105,5.215 0.051,0.39 1.262,4.347 1.262,4.347 0.66,1.786 1.133,3.153 1.133,4.352 0,0.441 -0.16,0.84 -0.305,1.25 -2.375,1.461 -2.746,4.016 -2.879,5.383 0,0 -0.211,1.297 -0.218,1.359 -0.051,0.02 -0.157,0.071 -0.157,0.071 0.309,-0.133 0.41,-0.122 0.739,-0.122 -6.321,0 -11.34,2.352 -16.196,4.598 l -5.535,2.434 c -1.269,0.32 -2.527,-0.145 -4.473,-0.95 l -2.937,-1.031 c -0.09,-0.023 -3.121,-0.57 -3.121,-0.57 -3.258,-0.531 -6.07,-0.992 -7.856,-2.918 -1.023,-1.25 -1.043,-2.75 -0.984,-5.488 l 0.031,-1.696 c 0,-0.297 -0.039,-0.558 -0.14,-0.839 -0.532,-1.579 -1.532,-2.262 -2.274,-2.551 -1.726,-0.676 -3.328,0.211 -4.187,0.679 l -0.383,0.2 c -4.715,2.613 -6.586,7.312 -5.285,12.164 0.226,0.832 -0.481,1.527 -0.801,1.777 -1.16,0.762 -3.383,1.391 -5.203,0.734 -1.481,-0.523 -2.235,-2.07 -3.328,-4.562 0,0 -0.383,-0.84 -0.641,-1.391 -0.012,-0.203 -0.027,-0.39 -0.027,-0.59 0,-1.652 0.41,-3.39 1.078,-4.46 2.07,-2.098 5.101,-3.778 8.301,-5.559 l 7.671,-4.91 c 0.504,-0.321 0.637,-0.629 0.829,-1.211 0.277,-0.809 0.39,-1.621 0.39,-2.391 0,-2.808 -1.461,-5.058 -2.73,-6.758 0.078,-0.058 0.191,-0.152 0.191,-0.152 0.867,-0.629 2.57,-1.859 2.57,-4.078 0,-0.301 -0.031,-0.617 -0.105,-0.949 -0.199,-1.004 -0.945,-1.805 -1.937,-2.051 -4.661,-1.16 -9.278,-0.191 -12.731,2.66 -0.047,0.047 -2.289,3.024 -2.289,3.024 -0.727,1.234 -1.117,1.699 -1.582,1.898 -0.336,-0.344 -0.785,-1.391 -1.051,-2.031 l -1.066,-2.25 c 0.168,0.312 -0.231,-1.864 -0.231,-1.864 -0.211,-1.945 -0.48,-4.367 -2.398,-6.058 -0.563,-0.488 -1.293,-0.719 -2.031,-0.641 l -2.118,0.242 c -9.734,3.25 -18.511,8.11 -28.234,15.387 -4.2265,3.227 -7.3867,7.551 -10.4375,11.742 l -2.3711,3.192 c -0.1875,0.25 -0.332,0.5 -0.4179,0.8 l -0.8789,3.055 c -1.6211,5.863 -3.0703,9.781 -7.2618,11.07 -0.4531,-0.105 -0.9921,-0.218 -1.1796,-0.265 v 0"
         style="fill:#ffffff;fill-opacity:1;fill-rule:nonzero;stroke:none"
         id="path4807"
         inkscape:connector-curvature="0" /><path
         d="m 3.23047,297.242 c 0,42.231 0.03125,89.281 0,144.293 H 364.316 c 0,0 -0.054,-21.531 -0.054,-145.203 0,-182.836 -182.051,-290.03122 -182.051,-290.03122 0,0 -178.98053,112.59722 -178.98053,290.94122 z"
         style="fill:none;stroke:#211d1d;stroke-width:6.45862007;stroke-linecap:butt;stroke-linejoin:miter;stroke-miterlimit:4;stroke-dasharray:none;stroke-opacity:1"
         id="path4809"
         inkscape:connector-curvature="0" /><path
         d="m 255.262,86.7695 h 0.031 c -0.031,0.0274 -0.07,0.0469 -0.109,0.0782 h 0.039 0.058 -0.027 0.027 0.039 0.121 -0.039 -0.039 0.078 -0.039 0.024 c -1.192,0.9648 -2.633,2.9179 -3.434,3.5546 -1.418,6.3829 8.5,10.6327 3.539,17.4887 -1.176,4.015 -0.23,9.211 -4.25,12.285 -2.832,2.355 -6.621,2.832 -9.922,4.961 0,1.648 2.137,1.191 3.301,1.648 5.211,1.418 9.934,-4.957 13.711,-0.23 0.473,3.554 -2.84,6.609 -5.199,8.98 -7.797,5.434 -19.609,3.313 -25.516,11.567 l 0.707,0.711 c 7.571,-1.653 15.828,-0.235 21.508,4.718 3.301,4.266 6.613,8.516 11.805,9.922 5.199,4.031 5.906,10.645 5.906,17.266 0.238,2.586 1.422,4.961 3.313,6.844 2.839,2.597 10.148,1.66 8.738,7.089 -4.02,2.121 -8.274,4.024 -12.996,3.555 -2.125,1.164 0.476,2.824 1.183,3.77 7.567,4.961 19.371,8.027 18.903,19.14 -0.707,1.172 -0.469,3.067 -2.36,3.301 -3.32,-0.469 -5.199,-3.535 -8.269,-4.949 -7.09,-4.024 -16.071,-3.321 -22.922,-7.571 -1.418,0 -0.945,1.887 -0.469,2.364 2.598,3.547 7.789,3.777 9.688,8.261 1.414,3.551 2.121,8.274 6.132,9.688 2.372,1.894 6.149,1.894 7.571,4.723 -0.239,1.66 -2.129,2.601 -3.551,3.082 -6.852,2.129 -13.461,-1.891 -18.188,-6.614 -4.96,-2.129 -10.628,-4.019 -14.41,-8.047 -0.711,-0.234 -1.894,0.235 -1.894,1.426 -0.946,9.453 7.562,16.305 13.703,21.973 4.488,1.191 8.269,6.613 13.469,4.238 3.543,-1.871 7.32,-3.758 11.578,-2.347 5.199,1.898 6.371,7.796 11.101,10.628 3.543,1.18 8.504,-4.019 10.633,0.938 1.176,5.199 -3.07,8.273 -5.43,12.062 2.829,7.325 0.708,15.821 -5.203,21.02 -2.839,1.66 -6.379,2.84 -9.679,1.898 -2.61,-3.32 2.351,-5.437 2.593,-8.75 1.184,-13.457 -13.472,-16.527 -22.203,-22.207 -16.547,-8.269 -36.633,-21.019 -37.808,-42.285 0.238,-11.816 5.199,-22.215 13.226,-30.488 4.254,-7.313 11.102,-14.168 8.5,-23.387 -1.648,-3.769 -6.125,-4.25 -9.679,-4.25 -14.172,0.957 -21.969,16.77 -27.875,27.637 -1.891,4.25 -4.254,8.273 -4.723,13.234 0.707,0.719 1.422,0.465 2.129,0 2.594,-2.367 2.351,-8.019 6.84,-7.324 3.539,4.957 0.953,10.867 -0.938,15.828 -2.594,4.492 -8.031,6.856 -10.16,11.582 -0.238,3.539 4.961,1.41 5.199,4.953 -1.89,6.153 -2.129,12.528 -1.422,18.211 0.95,2.598 4.735,2.348 4.735,5.649 -1.66,5.918 -1.66,11.816 -1.422,18.199 0.707,3.781 3.777,7.805 1.648,11.82 -4.254,1.176 -0.711,6.379 -4.718,7.559 -8.043,0 -13.942,4.266 -20.793,6.851 -3.551,0.938 -6.137,-1.179 -8.981,-1.89 -4.484,-0.942 -9.219,-0.942 -12.289,-4.262 -2.129,-2.586 -1.648,-5.43 -1.648,-8.969 -0.711,-2.121 -2.598,-0.242 -3.543,0 -3.309,1.887 -4.489,5.43 -3.547,8.969 0.472,1.66 -0.231,3.32 -1.653,4.5 -2.128,1.414 -5.199,2.121 -7.796,1.176 -3.301,-1.176 -4.25,-4.953 -5.668,-7.793 -0.243,-2.359 0.238,-5.203 1.418,-7.094 4.718,-4.957 11.339,-6.847 16.539,-11.097 0.937,-2.84 -0.954,-5.668 -2.84,-8.032 -0.231,-2.597 3.547,-2.597 3.078,-4.957 -3.789,-0.961 -7.559,-0.242 -10.41,2.121 -1.891,1.66 -2.348,5.2 -5.418,5.676 -2.844,0 -3.321,-3.785 -4.492,-5.676 -0.95,-2.121 -0.243,-5.668 -2.129,-7.328 l -2.129,0.227 c -9.68,3.32 -18.418,8.511 -26.93,14.89 -4.9609,3.789 -8.5117,9.461 -12.289,14.418 -1.8789,5.914 -2.832,14.168 -10.3906,16.059 -1.6602,-0.238 -3.7813,-0.469 -4.0078,-2.359 l -0.4844,-2.368 c -3.7813,0 -7.5586,2.61 -11.5781,1.204 -1.8907,-1.204 -3.7774,-2.614 -4.961,-4.504 -0.2383,-4.246 4.961,-2.602 5.668,-5.907 0,-3.062 2.3633,-5.675 3.7812,-7.793 -0.9375,-1.66 -2.8281,-2.609 -3.7812,-4.25 l -2.3672,-5.914 c 0.957,-1.886 2.1406,-4.257 4.4961,-4.484 3.3008,1.418 6.1445,-0.953 9.6836,-0.481 2.1289,-0.234 5.6797,1.661 5.9102,-1.894 1.1796,-2.828 0,-5.43 -0.2305,-8.027 -3.082,-4.481 -7.1016,-7.801 -11.5781,-9.922 -1.4219,-0.938 -1.4219,-3.067 -0.9532,-4.489 1.6602,-2.371 5.4297,-1.418 8.043,-1.179 4.957,0.238 8.7266,3.07 13.457,3.551 1.1836,-2.372 3.0703,-5.211 5.4414,-6.395 3.7776,-0.937 4.7186,4.266 8.4996,2.844 3.071,-2.36 2.129,-6.86 4.961,-9.68 0.239,-1.66 -1.414,-1.66 -2.359,-2.371 -4.023,-1.422 -9.6914,0 -12.7617,-3.297 -0.4688,-1.902 1.1797,-3.555 2.6015,-4.258 3.5392,-1.894 8.0352,-2.363 12.2892,-3.086 3.769,-0.457 7.789,0.957 11.34,0 l -1.18,-1.875 -11.582,-7.793 c -5.199,-2.136 -10.8672,-3.308 -15.5898,-5.918 -7.3203,-1.882 -10.3984,7.336 -17.0078,6.844 -2.8399,0 -4.7188,-0.926 -6.6211,-2.586 -1.6485,-1.648 -1.8867,-4.258 -1.4102,-6.367 0.9414,-2.148 4.0078,-1.191 4.0078,-3.555 -0.2382,-6.621 -5.9062,-11.347 -6.375,-18.203 -0.2461,-1.64 0.2383,-3.769 2.1289,-4.472 1.1797,-0.711 3.0704,-0.243 4.0079,0.703 1.4218,1.418 1.4218,3.547 3.7812,4.015 4.0234,-0.468 8.2695,-0.468 11.0977,2.598 1.4218,0.234 2.8398,-1.184 2.8398,-2.355 0,-1.653 0,-3.555 1.6524,-4.258 5.9179,-0.235 8.75,5.898 11.3512,10.168 2.598,0.457 5.43,2.363 8.028,0.691 0.953,-4.012 -2.36,-6.844 -3.071,-10.625 0.243,-0.937 1.418,-1.894 2.602,-2.117 7.082,0.937 11.098,7.547 15.348,12.742 0.711,1.438 1.421,3.313 3.554,3.313 5.43,-1.641 6.844,4.961 10.145,7.332 h 1.433 c 0.465,-1.661 -0.711,-2.852 0,-4.5 2.348,-2.59 4.957,0.242 7.317,0.711 l 4.961,3.066 c 5.91,-1.875 12.051,-3.301 18.187,-4.715 4.961,-1.894 0,-7.09 3.074,-10.168 -0.699,-1.64 -2.843,-2.129 -4.96,-2.129 -10.391,-1.406 -22.438,1.426 -30.708,-6.375 l -4.96,-4.961 c -7.801,-0.234 -11.813,-6.847 -18.903,-8.027 -4.726,-3.313 -12.047,1.406 -15.1287,-4.023 2.3707,-4.961 8.2817,-6.614 13.4687,-8.028 2.133,-0.949 5.672,0.242 6.852,-2.121 0.238,-2.363 0.711,-5.203 3.546,-6.152 2.122,-0.684 3.301,2.363 5.204,0.722 2.601,-3.543 6.371,-5.214 8.507,-8.523 -1.668,-3.059 -5.675,-1.176 -8.507,-1.176 l -0.469,0.227 c -4.262,-0.457 -9.692,-2.586 -13,1.437 -4.492,3.309 -8.031,8.496 -14.414,8.496 -3.5393,-0.949 -7.3205,-2.367 -8.0354,-6.379 -0.4687,-2.363 1.8867,-3.3 2.836,-4.726 -4.2578,-2.832 -8.75,-7.313 -7.3282,-12.977 0.4805,-1.191 0.9493,-2.609 2.6016,-2.609 2.1289,0 3.7773,1.875 5.9063,0.723 0.4804,-3.567 -0.4688,-9.004 3.7817,-10.664 3.308,0.48 5.671,4.035 9.21,1.425 3.543,-1.64 6.379,1.66 9.461,2.61 4.961,0 6.852,-4.7386 8.5,-8.2738 3.067,-2.3633 7.321,-6.1406 11.567,-3.7773 2.844,4.0039 -2.586,9.2191 2.844,11.8051 3.308,0.949 6.136,-0.215 9.449,0.476 5.199,-0.476 11.582,-0.945 14.418,4.731 l 4.722,8.035 0.942,4.961 c 3.074,0.937 7.558,-4.024 8.976,0.703 -1.648,4.726 -2.125,9.453 -1.418,14.648 0.946,3.547 2.598,6.856 4.961,9.231 l 1.188,-0.489 c 1.418,-5.89 1.648,-11.82 4.25,-17.246 -0.477,-5.441 -3.309,-10.156 -4.008,-15.597 -1.43,-5.664 -5.445,-10.157 -10.641,-12.762 -1.179,-0.9375 -2.125,-2.5977 -1.41,-4.2383 1.41,-2.6094 4.953,-1.1914 7.547,-1.6602 7.332,0.9571 14.184,4.4922 19.145,9.9215 5.199,-1.418 7.797,4.961 12.515,2.129 4.973,-3.789 13.953,2.832 15.832,-5.207 -0.707,-3.7771 2.84,-10.6169 -3.308,-12.2732 -6.141,0.9375 -13.219,8.9844 -19.364,1.8829 -1.429,-1.4141 -2.367,-3.3008 -1.429,-5.1954 0.953,-1.6601 2.133,-3.7812 0.472,-5.1835 -1.648,-2.8438 -4.011,-6.3907 -2.589,-9.9336 1.179,-2.1172 3.546,-2.1172 5.668,-1.6485 3.539,1.4141 6.847,-1.6523 10.39,-1.9062 3.07,-2.3516 6.152,-5.2032 10.16,-4.9492 1.66,0.9375 1.422,3.0742 2.598,4.4804 2.602,2.1289 8.043,1.6602 8.043,6.3789 0.695,3.543 3.719,6.6875 6.793,8.5742 0.695,-0.246 7.613,1.4336 9.465,4.8047 v 0 0"
         style="fill:#211d1d;fill-opacity:1;fill-rule:nonzero;stroke:none"
         id="path4811"
         inkscape:connector-curvature="0" /><path
         d="m 255.262,86.7695 h 0.031 c -0.031,0.0274 -0.07,0.0469 -0.109,0.0782 h 0.039 0.058 -0.027 0.027 0.039 0.121 -0.039 -0.039 0.078 -0.039 0.024 c -1.192,0.9648 -2.633,2.9179 -3.434,3.5546 -1.418,6.3829 8.5,10.6327 3.539,17.4887 -1.176,4.015 -0.23,9.211 -4.25,12.285 -2.832,2.355 -6.621,2.832 -9.922,4.961 0,1.648 2.137,1.191 3.301,1.648 5.211,1.418 9.934,-4.957 13.711,-0.23 0.473,3.554 -2.84,6.609 -5.199,8.98 -7.797,5.434 -19.609,3.313 -25.516,11.567 l 0.707,0.711 c 7.571,-1.653 15.828,-0.235 21.508,4.718 3.301,4.266 6.613,8.516 11.805,9.922 5.199,4.031 5.906,10.645 5.906,17.266 0.238,2.586 1.422,4.961 3.313,6.844 2.839,2.597 10.148,1.66 8.738,7.089 -4.02,2.121 -8.274,4.024 -12.996,3.555 -2.125,1.164 0.476,2.824 1.183,3.77 7.567,4.961 19.371,8.027 18.903,19.14 -0.707,1.172 -0.469,3.067 -2.36,3.301 -3.32,-0.469 -5.199,-3.535 -8.269,-4.949 -7.09,-4.024 -16.071,-3.321 -22.922,-7.571 -1.418,0 -0.945,1.887 -0.469,2.364 2.598,3.547 7.789,3.777 9.688,8.261 1.414,3.551 2.121,8.274 6.132,9.688 2.372,1.894 6.149,1.894 7.571,4.723 -0.239,1.66 -2.129,2.601 -3.551,3.082 -6.852,2.129 -13.461,-1.891 -18.188,-6.614 -4.96,-2.129 -10.628,-4.019 -14.41,-8.047 -0.711,-0.234 -1.894,0.235 -1.894,1.426 -0.946,9.453 7.562,16.305 13.703,21.973 4.488,1.191 8.269,6.613 13.469,4.238 3.543,-1.871 7.32,-3.758 11.578,-2.347 5.199,1.898 6.371,7.796 11.101,10.628 3.543,1.18 8.504,-4.019 10.633,0.938 1.176,5.199 -3.07,8.273 -5.43,12.062 2.829,7.325 0.708,15.821 -5.203,21.02 -2.839,1.66 -6.379,2.84 -9.679,1.898 -2.61,-3.32 2.351,-5.437 2.593,-8.75 1.184,-13.457 -13.472,-16.527 -22.203,-22.207 -16.547,-8.269 -36.633,-21.019 -37.808,-42.285 0.238,-11.816 5.199,-22.215 13.226,-30.488 4.254,-7.313 11.102,-14.168 8.5,-23.387 -1.648,-3.769 -6.125,-4.25 -9.679,-4.25 -14.172,0.957 -21.969,16.77 -27.875,27.637 -1.891,4.25 -4.254,8.273 -4.723,13.234 0.707,0.719 1.422,0.465 2.129,0 2.594,-2.367 2.351,-8.019 6.84,-7.324 3.539,4.957 0.953,10.867 -0.938,15.828 -2.594,4.492 -8.031,6.856 -10.16,11.582 -0.238,3.539 4.961,1.41 5.199,4.953 -1.89,6.153 -2.129,12.528 -1.422,18.211 0.95,2.598 4.735,2.348 4.735,5.649 -1.66,5.918 -1.66,11.816 -1.422,18.199 0.707,3.781 3.777,7.805 1.648,11.82 -4.254,1.176 -0.711,6.379 -4.718,7.559 -8.043,0 -13.942,4.266 -20.793,6.851 -3.551,0.938 -6.137,-1.179 -8.981,-1.89 -4.484,-0.942 -9.219,-0.942 -12.289,-4.262 -2.129,-2.586 -1.648,-5.43 -1.648,-8.969 -0.711,-2.121 -2.598,-0.242 -3.543,0 -3.309,1.887 -4.489,5.43 -3.547,8.969 0.472,1.66 -0.231,3.32 -1.653,4.5 -2.128,1.414 -5.199,2.121 -7.796,1.176 -3.301,-1.176 -4.25,-4.953 -5.668,-7.793 -0.243,-2.359 0.238,-5.203 1.418,-7.094 4.718,-4.957 11.339,-6.847 16.539,-11.097 0.937,-2.84 -0.954,-5.668 -2.84,-8.032 -0.231,-2.597 3.547,-2.597 3.078,-4.957 -3.789,-0.961 -7.559,-0.242 -10.41,2.121 -1.891,1.66 -2.348,5.2 -5.418,5.676 -2.844,0 -3.321,-3.785 -4.492,-5.676 -0.95,-2.121 -0.243,-5.668 -2.129,-7.328 l -2.129,0.227 c -9.68,3.32 -18.418,8.511 -26.93,14.89 -4.9609,3.789 -8.5117,9.461 -12.289,14.418 -1.8789,5.914 -2.832,14.168 -10.3906,16.059 -1.6602,-0.238 -3.7813,-0.469 -4.0078,-2.359 l -0.4844,-2.368 c -3.7813,0 -7.5586,2.61 -11.5781,1.204 -1.8907,-1.204 -3.7774,-2.614 -4.961,-4.504 -0.2383,-4.246 4.961,-2.602 5.668,-5.907 0,-3.062 2.3633,-5.675 3.7812,-7.793 -0.9375,-1.66 -2.8281,-2.609 -3.7812,-4.25 l -2.3672,-5.914 c 0.957,-1.886 2.1406,-4.257 4.4961,-4.484 3.3008,1.418 6.1445,-0.953 9.6836,-0.481 2.1289,-0.234 5.6797,1.661 5.9102,-1.894 1.1796,-2.828 0,-5.43 -0.2305,-8.027 -3.082,-4.481 -7.1016,-7.801 -11.5781,-9.922 -1.4219,-0.938 -1.4219,-3.067 -0.9532,-4.489 1.6602,-2.371 5.4297,-1.418 8.043,-1.179 4.957,0.238 8.7266,3.07 13.457,3.551 1.1836,-2.372 3.0703,-5.211 5.4414,-6.395 3.7776,-0.937 4.7186,4.266 8.4996,2.844 3.071,-2.36 2.129,-6.86 4.961,-9.68 0.239,-1.66 -1.414,-1.66 -2.359,-2.371 -4.023,-1.422 -9.6914,0 -12.7617,-3.297 -0.4688,-1.902 1.1797,-3.555 2.6015,-4.258 3.5392,-1.894 8.0352,-2.363 12.2892,-3.086 3.769,-0.457 7.789,0.957 11.34,0 l -1.18,-1.875 -11.582,-7.793 c -5.199,-2.136 -10.8672,-3.308 -15.5898,-5.918 -7.3203,-1.882 -10.3984,7.336 -17.0078,6.844 -2.8399,0 -4.7188,-0.926 -6.6211,-2.586 -1.6485,-1.648 -1.8867,-4.258 -1.4102,-6.367 0.9414,-2.148 4.0078,-1.191 4.0078,-3.555 -0.2382,-6.621 -5.9062,-11.347 -6.375,-18.203 -0.2461,-1.64 0.2383,-3.769 2.1289,-4.472 1.1797,-0.711 3.0704,-0.243 4.0079,0.703 1.4218,1.418 1.4218,3.547 3.7812,4.015 4.0234,-0.468 8.2695,-0.468 11.0977,2.598 1.4218,0.234 2.8398,-1.184 2.8398,-2.355 0,-1.653 0,-3.555 1.6524,-4.258 5.9179,-0.235 8.75,5.898 11.3512,10.168 2.598,0.457 5.43,2.363 8.028,0.691 0.953,-4.012 -2.36,-6.844 -3.071,-10.625 0.243,-0.937 1.418,-1.894 2.602,-2.117 7.082,0.937 11.098,7.547 15.348,12.742 0.711,1.438 1.421,3.313 3.554,3.313 5.43,-1.641 6.844,4.961 10.145,7.332 h 1.433 c 0.465,-1.661 -0.711,-2.852 0,-4.5 2.348,-2.59 4.957,0.242 7.317,0.711 l 4.961,3.066 c 5.91,-1.875 12.051,-3.301 18.187,-4.715 4.961,-1.894 0,-7.09 3.074,-10.168 -0.699,-1.64 -2.843,-2.129 -4.96,-2.129 -10.391,-1.406 -22.438,1.426 -30.708,-6.375 l -4.96,-4.961 c -7.801,-0.234 -11.813,-6.847 -18.903,-8.027 -4.726,-3.313 -12.047,1.406 -15.1287,-4.023 2.3707,-4.961 8.2817,-6.614 13.4687,-8.028 2.133,-0.949 5.672,0.242 6.852,-2.121 0.238,-2.363 0.711,-5.203 3.546,-6.152 2.122,-0.684 3.301,2.363 5.204,0.722 2.601,-3.543 6.371,-5.214 8.507,-8.523 -1.668,-3.059 -5.675,-1.176 -8.507,-1.176 l -0.469,0.227 c -4.262,-0.457 -9.692,-2.586 -13,1.437 -4.492,3.309 -8.031,8.496 -14.414,8.496 -3.5393,-0.949 -7.3205,-2.367 -8.0354,-6.379 -0.4687,-2.363 1.8867,-3.3 2.836,-4.726 -4.2578,-2.832 -8.75,-7.313 -7.3282,-12.977 0.4805,-1.191 0.9493,-2.609 2.6016,-2.609 2.1289,0 3.7773,1.875 5.9063,0.723 0.4804,-3.567 -0.4688,-9.004 3.7817,-10.664 3.308,0.48 5.671,4.035 9.21,1.425 3.543,-1.64 6.379,1.66 9.461,2.61 4.961,0 6.852,-4.7386 8.5,-8.2738 3.067,-2.3633 7.321,-6.1406 11.567,-3.7773 2.844,4.0039 -2.586,9.2191 2.844,11.8051 3.308,0.949 6.136,-0.215 9.449,0.476 5.199,-0.476 11.582,-0.945 14.418,4.731 l 4.722,8.035 0.942,4.961 c 3.074,0.937 7.558,-4.024 8.976,0.703 -1.648,4.726 -2.125,9.453 -1.418,14.648 0.946,3.547 2.598,6.856 4.961,9.231 l 1.188,-0.489 c 1.418,-5.89 1.648,-11.82 4.25,-17.246 -0.477,-5.441 -3.309,-10.156 -4.008,-15.597 -1.43,-5.664 -5.445,-10.157 -10.641,-12.762 -1.179,-0.9375 -2.125,-2.5977 -1.41,-4.2383 1.41,-2.6094 4.953,-1.1914 7.547,-1.6602 7.332,0.9571 14.184,4.4922 19.145,9.9215 5.199,-1.418 7.797,4.961 12.515,2.129 4.973,-3.789 13.953,2.832 15.832,-5.207 -0.707,-3.7771 2.84,-10.6169 -3.308,-12.2732 -6.141,0.9375 -13.219,8.9844 -19.364,1.8829 -1.429,-1.4141 -2.367,-3.3008 -1.429,-5.1954 0.953,-1.6601 2.133,-3.7812 0.472,-5.1835 -1.648,-2.8438 -4.011,-6.3907 -2.589,-9.9336 1.179,-2.1172 3.546,-2.1172 5.668,-1.6485 3.539,1.4141 6.847,-1.6523 10.39,-1.9062 3.07,-2.3516 6.152,-5.2032 10.16,-4.9492 1.66,0.9375 1.422,3.0742 2.598,4.4804 2.602,2.1289 8.043,1.6602 8.043,6.3789 0.695,3.543 3.719,6.6875 6.793,8.5742 0.695,-0.246 7.613,1.4336 9.465,4.8047 z"
         style="fill:none;stroke:#211d1d;stroke-width:1.31952;stroke-linecap:butt;stroke-linejoin:miter;stroke-miterlimit:4;stroke-dasharray:none;stroke-opacity:1"
         id="path4813"
         inkscape:connector-curvature="0" /><path
         d="m 147.094,293.594 c -0.711,-3.082 -0.469,-5.906 1.422,-8.512 4.961,-5.437 12.519,-7.09 15.586,-13.469 l -1.891,0.242 c -5.898,3.77 -11.34,8.266 -17.477,11.11 -2.371,1.648 -4.023,4.246 -3.554,7.32 0.484,2.117 1.183,4.492 3.554,4.949 1.176,0.239 2.36,-0.457 2.36,-1.64 v 0 0"
         style="fill:#ffffff;fill-opacity:1;fill-rule:nonzero;stroke:none"
         id="path4815"
         inkscape:connector-curvature="0" /><path
         d="m 197.656,287.914 c 0.946,-1.41 0.231,-4.492 3.067,-4.719 0.711,0 1.422,-0.711 1.422,-1.414 -0.243,-2.367 -0.711,-4.968 -1.422,-7.328 -0.707,-1.89 -3.313,-2.598 -3.313,-5.199 0,-1.422 2.137,-2.121 2.363,-3.539 l -0.226,-9.461 c -5.914,-1.887 -3.074,-9.215 -3.543,-12.992 -0.711,-3.067 0,-6.137 -0.254,-9.207 -1.406,-0.719 -3.996,-0.481 -4.715,-2.602 0,-3.539 1.66,-6.379 2.836,-9.207 2.133,-3.086 6.621,-3.777 6.852,-7.801 -3.067,-0.246 -5.91,1.883 -8.743,2.84 -4.488,2.356 -7.558,7.07 -10.156,11.328 -0.711,0.707 -1.648,0.707 -2.363,-0.23 -0.477,-2.84 -0.707,-6.86 -3.309,-8.742 -3.066,1.882 -2.828,9.453 -7.797,7.082 -1.652,-10.149 -8.503,-18.196 -14.41,-26.692 -1.422,-0.48 -1.652,-2.597 -3.543,-2.129 3.075,7.793 5.434,17.246 2.36,25.985 -0.707,1.656 -2.36,1.187 -3.539,0.468 -1.422,-0.937 -2.129,-3.3 -4.246,-2.585 -1.661,2.585 1.648,6.613 -2.145,8.265 -3.297,-0.715 -5.187,-3.539 -8.027,-4.961 -7.082,-4.261 -15.59,-5.914 -24.094,-6.148 -1.66,0 -3.066,0.48 -4.02,1.191 2.129,2.129 5.204,2.598 7.801,4.004 9.922,5.914 16.543,16.781 24.559,24.824 -0.696,3.528 -3.778,7.789 -0.457,11.09 2.586,0.238 3.527,-2.832 5.66,-3.539 3.547,-1.902 8.039,-3.074 11.82,-1.422 3.309,0.707 5.668,3.778 5.899,6.86 0.238,1.421 -0.707,2.121 -1.653,2.597 -0.937,0 -2.129,0 -2.597,0.942 0,1.66 1.191,2.84 2.597,3.074 4.024,-0.234 8.035,-8.742 10.86,-1.652 1.66,5.668 -3.524,9.918 -7.547,13.457 -0.949,1.183 -1.66,2.375 -1.18,4.023 3.07,1.891 -0.711,4.477 1.649,6.617 4.011,3.063 10.16,1.18 14.414,4.242 7.32,-0.218 12.519,-5.66 19.14,-7.32 v 0 0"
         style="fill:#ffffff;fill-opacity:1;fill-rule:nonzero;stroke:none"
         id="path4817"
         inkscape:connector-curvature="0" /><path
         d="m 85.2031,290.043 c 0.2305,-1.191 0.4688,-2.355 0,-3.301 -0.9609,-0.953 -2.1289,0 -2.8398,0.469 -1.4219,1.184 -2.1289,3.074 -1.6602,4.254 0.2383,4.973 4.5,0.469 4.5,-1.422 v 0 0"
         style="fill:#ffffff;fill-opacity:1;fill-rule:nonzero;stroke:none"
         id="path4819"
         inkscape:connector-curvature="0" /><path
         d="m 81.8828,282.965 c 6.3789,-3.082 11.1094,-9.449 15.5938,-14.895 10.1684,-8.496 21.0274,-15.828 33.3204,-19.125 0.469,-1.906 -0.953,-3.562 -2.363,-4.968 -4.02,-4.254 -7.332,-9.227 -11.579,-13.004 -0.953,-0.239 -1.89,-0.239 -2.601,0.238 -4.25,4.023 -3.781,12.289 -11.109,12.535 -2.36,0.231 -4.2505,-2.844 -6.6137,-1.191 -2.3555,1.89 0.7148,6.148 -2.8243,7.09 -4.0234,-1.653 -7.3359,-6.145 -12.0625,-5.43 3.0821,5.191 8.5118,10.859 5.6797,17.719 -0.7226,3.07 -2.5976,6.379 -5.4414,7.55 -2.832,0.239 -4.4922,-3.074 -7.3164,-1.652 -1.1836,2.602 -6.3828,1.422 -4.2656,4.731 1.6601,2.843 8.75,3.3 5.9258,8.035 -1.9024,2.597 -6.3946,1.183 -6.8633,4.726 0.4687,2.117 -1.4102,4.961 0,6.371 5.6719,0.477 9.2109,-5.191 12.5195,-8.73 v 0 0"
         style="fill:#ffffff;fill-opacity:1;fill-rule:nonzero;stroke:none"
         id="path4821"
         inkscape:connector-curvature="0" /><path
         d="m 289.324,280.121 c 0.699,-3.777 -2.84,-6.137 -1.902,-9.687 0.949,-1.887 4.023,-2.364 3.793,-4.481 -8.981,-0.238 -10.641,-12.062 -19.613,-11.82 -3.782,0.703 -6.61,4.719 -11.11,2.832 -11.578,-5.422 -24.086,-13.465 -27.156,-27.168 -1.422,-5.207 -0.953,-11.106 2.824,-15.352 0.945,-0.468 2.125,-0.468 3.074,0 2.348,4.246 4.262,9.91 9.918,11.098 3.325,1.18 6.625,2.371 9.692,4.254 0.472,0 1.179,0.476 1.418,-0.477 -1.418,-4.007 -3.309,-8.976 -7.785,-10.394 -3.325,-2.832 -6.395,-6.141 -6.864,-10.399 -0.238,-2.113 -0.48,-4.953 1.176,-6.601 1.66,-1.418 3.551,0.469 4.965,1.402 6.148,7.57 15.359,8.52 24.578,8.988 0.469,-0.714 -0.719,-2.121 -1.66,-2.363 -7.797,-2.598 -15.125,-8.976 -17.719,-16.769 0.238,-1.18 0.949,-2.129 1.891,-2.598 3.777,0.469 6.847,2.832 10.867,2.355 0.941,-2.609 -3.074,-2.609 -4.02,-4.718 -7.32,-6.375 0,-20.801 -12.281,-22.918 -3.539,-0.957 -3.07,-5.207 -5.437,-7.317 -4.008,-5.215 -10.629,-6.621 -17.25,-5.925 -4.719,-0.469 -8.743,6.375 -12.75,1.902 0.468,-4.735 4.254,-7.324 6.613,-11.348 5.906,-5.672 14.18,-6.133 21.734,-8.504 0.946,-0.234 1.653,-0.949 2.129,-1.886 0,-1.661 -2.129,-1.192 -3.547,-0.957 -4.718,-0.704 -10.156,-1.407 -14.879,0.488 -0.707,0.226 -1.421,-0.723 -1.66,-1.414 0.707,-5.207 6.614,-7.102 10.16,-9.934 3.543,-1.66 8.266,-1.18 9.926,-5.437 v -5.43 c 1.653,-2.598 2.594,-5.91 1.891,-9.23 -3.305,-3.7583 -5.68,-8.7192 -3.074,-13.6919 -1.411,-1.1719 -3.539,0 -4.961,-0.9453 -1.653,-3.5352 -6.145,-4.0156 -7.328,-7.5508 -0.231,-2.8516 -1.883,-5.4375 -4.715,-5.8984 -2.367,0.2148 -4.02,-0.9649 -6.149,-0.4883 -1.418,1.6523 0.711,4.2695 -1.886,5.1953 -3.313,0.7227 -4.493,-4.4922 -8.036,-2.5977 -1.66,0.9375 -3.308,1.6719 -4.015,3.3204 -0.246,2.121 1.89,2.8125 3.308,3.7812 7.789,0.9336 17.961,2.3516 20.789,10.8594 0.473,4.0039 -1.421,7.3125 -0.71,10.8591 -1.18,4.5 -5.668,7.352 -10.161,7.821 -4.257,1.152 -8.968,-0.469 -12.05,2.578 -1.176,0.957 -2.586,1.894 -4.02,1.183 -1.18,-0.226 -1.641,-1.875 -3.07,-1.183 -1.176,1.183 -2.828,2.843 -4.246,1.183 -2.832,-5.664 -7.09,-11.816 -13.942,-13 -0.941,1.66 0.938,3.555 1.66,5.442 2.118,4.492 3.778,9.441 4.719,14.402 1.891,2.609 4.02,5.918 2.602,9.453 -2.844,8.039 -6.149,16.778 -3.782,25.996 1.653,10.871 -0.953,21.028 -8.98,28.352 -4.492,2.605 -8.27,7.078 -13.699,8.035 -3.551,1.172 -8.742,-0.234 -10.641,3.293 0.481,3.797 4.5,5.918 6.149,9.227 l 6.14,9.445 c 2.598,0.476 1.891,-3.305 4.492,-3.067 4.965,0 4.727,8.27 9.926,5.672 2.352,-3.308 6.137,-4.492 8.504,-7.312 3.309,-13.469 8.27,-26.465 17.488,-37.348 7.082,-9.215 17.95,-16.062 29.293,-12.742 3.067,2.598 7.321,5.43 8.028,9.894 3.07,21.524 -24.332,32.149 -22.211,53.407 1.894,20.09 22.449,30.949 38.75,38.746 8.984,4.738 20.32,11.113 21.031,22.691 -0.242,1.18 0,1.887 0.473,3.071 3.308,-1.184 3.066,-5.2 3.308,-8.274 v 0 0"
         style="fill:#ffffff;fill-opacity:1;fill-rule:nonzero;stroke:none"
         id="path4823"
         inkscape:connector-curvature="0" /><path
         d="m 142.602,216.328 c 2.601,-0.469 5.671,2.832 6.851,-0.703 -0.469,-4.949 -0.711,-10.633 -3.07,-14.891 -2.371,-2.363 -5.899,-0.468 -8.496,-1.652 -3.551,-0.945 -4.266,-9.687 -8.75,-4.023 -1.883,0.714 -3.074,-1.172 -4.016,-2.118 -1.891,-4.492 -3.777,-8.964 -7.09,-12.519 -0.707,-0.469 -1.89,-0.957 -2.597,-0.227 -0.469,3.059 1.89,8.489 -2.602,9.434 -1.891,0.234 -3.543,-0.945 -5.187,-1.641 -3.555,0.235 -8.2817,0.235 -10.1684,-3.308 -0.4649,-1.653 -0.7032,-4.024 -2.8321,-4.258 -2.1289,0.945 -4.9609,1.648 -5.8984,4.48 -0.9531,0.723 -2.375,1.661 -3.543,0.481 -1.8984,-1.895 -2.6093,-5.188 -5.6758,-5.188 -2.375,0 -4.4921,0.684 -6.3828,1.653 0.4688,5.429 6.6211,6.14 10.3907,8.261 7.5586,1.661 13.2382,6.375 20.8008,7.793 11.805,4.493 21.258,13.231 30.469,22.215 1.422,0.469 2.84,1.172 4.246,1.172 0.965,-1.883 0.965,-4.48 3.551,-4.961 v 0 0"
         style="fill:#ffffff;fill-opacity:1;fill-rule:nonzero;stroke:none"
         id="path4825"
         inkscape:connector-curvature="0" /><path
         d="m 84.9648,194.59 c -2.1328,-1.406 -5.4375,-2.344 -8.0429,-1.172 -1.418,1.418 -0.6953,4.016 -0.9375,6.133 0.6992,1.672 2.8281,1.183 4.0117,0.48 1.6484,-1.66 4.9687,-2.597 4.9687,-5.441 v 0 0"
         style="fill:#ffffff;fill-opacity:1;fill-rule:nonzero;stroke:none"
         id="path4827"
         inkscape:connector-curvature="0" /><path
         d="m 186.074,164.113 c -0.238,-3.527 -0.469,-6.125 -2.359,-9.211 -4.016,-3.781 -7.805,-8.742 -9.215,-14.394 0,-4.024 -0.477,-7.813 -0.707,-11.582 -1.184,-0.965 -2.129,0.469 -2.844,1.183 -1.886,2.832 -1.402,9.207 -6.375,8.262 -2.601,-2.836 -5.191,-7.101 -3.539,-10.871 2.117,-3.074 6.375,-5.437 4.008,-9.453 -3.539,-1.902 -2.59,-7.324 -7.32,-7.793 -7.09,-0.945 -14.407,2.129 -20.078,-2.844 -1.895,-1.648 -3.071,-4.012 -4.024,-6.375 -3.308,-0.469 -2.355,4.016 -4.008,5.91 -1.179,1.883 -3.55,0.711 -5.199,1.641 -2.598,0.957 -5.199,3.797 -8.273,1.668 -2.598,-1.426 -5.668,-4.727 -8.739,-2.129 l -4.257,1.184 c -0.231,1.414 1.421,3.3 0.238,4.726 l -8.2697,3.778 c -0.4688,0.714 0.2383,1.652 0.7109,2.128 6.8518,4.485 14.6488,-0.711 22.6798,0.723 5.199,1.867 10.156,0.918 15.832,0.703 3.066,-0.246 6.844,-0.957 8.738,1.641 1.18,1.672 1.66,4.004 0.481,5.918 -2.375,5.187 -9.934,6.367 -10.871,12.519 -0.485,1.172 -1.418,2.344 -2.602,2.832 -1.891,0.696 -3.082,-1.414 -4.961,-0.488 -0.469,1.66 -0.945,3.789 -2.836,4.504 -3.543,0 -7.793,-1.652 -10.859,0.703 0.469,1.883 2.828,1.426 4.246,2.371 4.961,0.949 9.211,4.25 13.703,6.379 l 6.852,0.945 c 6.847,11.106 20.785,10.383 32.593,10.86 l 11.582,3.547 c 4.02,-0.95 4.973,-5.676 5.672,-8.985 v 0 0"
         style="fill:#ffffff;fill-opacity:1;fill-rule:nonzero;stroke:none"
         id="path4829"
         inkscape:connector-curvature="0" /><path
         d="m 110.711,125.84 c -2.129,-1.414 -4.961,-0.469 -7.328,-0.235 -1.41,1.18 -1.891,3.79 -1.649,5.188 3.539,1.668 7.317,-1.867 8.977,-4.953 v 0 0"
         style="fill:#ffffff;fill-opacity:1;fill-rule:nonzero;stroke:none"
         id="path4831"
         inkscape:connector-curvature="0" /><path
         d="m 216.313,87.5781 c 0.238,-1.1797 -1.422,-0.957 -1.879,-0.957 -0.95,-0.2227 -0.95,0.4687 -1.422,0.957 0.23,2.1211 2.832,0.9375 3.301,0 v 0 0"
         style="fill:#ffffff;fill-opacity:1;fill-rule:nonzero;stroke:none"
         id="path4833"
         inkscape:connector-curvature="0" /><path
         d="m 185.605,284.141 c 0.469,-1.657 -0.703,-3.075 -2.363,-3.317 -2.84,-0.226 -5.441,0 -7.558,2.141 -2.129,1.648 -0.95,4.476 -0.469,6.609 0.937,1.18 2.586,1.18 3.769,0.469 2.598,-1.422 4.731,-3.777 6.621,-5.902 v 0 0"
         style="fill:#211d1d;fill-opacity:1;fill-rule:nonzero;stroke:none"
         id="path4835"
         inkscape:connector-curvature="0" /><path
         d="m 199.07,280.121 c 0,-1.887 -0.945,-3.777 -2.129,-5.199 -1.191,-0.707 -2.128,-0.238 -2.597,0.941 -0.473,2.129 0.469,4.02 1.66,5.203 0.937,0.715 2.828,0.469 3.066,-0.945 v 0 0"
         style="fill:#211d1d;fill-opacity:1;fill-rule:nonzero;stroke:none"
         id="path4837"
         inkscape:connector-curvature="0" /><path
         d="m 183.945,263.105 -0.23,-4.011 c -4.016,-4.5 -4.016,-11.34 -10.16,-13.942 -1.66,-0.23 -3.071,0.711 -3.313,2.371 -0.238,2.598 -0.695,5.899 0.242,8.504 2.602,1.414 3.309,-3.785 5.426,-1.433 0.953,3.789 4.02,6.617 5.914,9.699 0.938,0.238 1.66,-0.48 2.121,-1.188 v 0 0"
         style="fill:#211d1d;fill-opacity:1;fill-rule:nonzero;stroke:none"
         id="path4839"
         inkscape:connector-curvature="0" /><path
         d="M 3.41406,336.633 H 364.145 v -24.84 H 3.41406 v 24.84 0"
         style="fill:#211d1d;fill-opacity:1;fill-rule:nonzero;stroke:none"
         id="path4841"
         inkscape:connector-curvature="0" /><path
         d="M 3.41406,336.633 H 364.145 v -24.84 H 3.41406 Z"
         style="fill:none;stroke:#211d1d;stroke-width:1.31952;stroke-linecap:butt;stroke-linejoin:miter;stroke-miterlimit:4;stroke-dasharray:none;stroke-opacity:1"
         id="path4843"
         inkscape:connector-curvature="0" /><path
         d="m 271.625,332.172 h 40.969 v -15.926 h -40.969 v 15.926 0"
         style="fill:#ffffff;fill-opacity:1;fill-rule:nonzero;stroke:none"
         id="path4845"
         inkscape:connector-curvature="0" /><path
         d="m 182.531,332.172 h 40.965 v -15.926 h -40.965 v 15.926 0"
         style="fill:#ffffff;fill-opacity:1;fill-rule:nonzero;stroke:none"
         id="path4847"
         inkscape:connector-curvature="0" /><path
         d="m 92.8125,332.184 h 40.9605 v -15.95 H 92.8125 v 15.95 0"
         style="fill:#ffffff;fill-opacity:1;fill-rule:nonzero;stroke:none"
         id="path4849"
         inkscape:connector-curvature="0" /><path
         d="M 7.74219,332.184 H 44.9961 v -15.95 H 7.74219 v 15.95 0"
         style="fill:#ffffff;fill-opacity:1;fill-rule:nonzero;stroke:none"
         id="path4851"
         inkscape:connector-curvature="0" /><path
         d="m 347.734,425.664 c 2.918,-3.672 0.981,-8.809 1.707,-13.211 3.168,-2.687 10.032,0.254 10.762,-5.859 0.481,-2.453 -0.98,-4.172 -2.199,-5.641 -2.199,-2.199 -6.121,0 -8.074,-2.437 -0.739,-7.344 0,-15.399 0,-23.719 2.203,-1.473 5.133,-1.231 7.586,-2.453 1.218,-1.469 2.437,-2.938 2.437,-4.891 -0.254,-1.961 -1.457,-3.43 -3.43,-4.16 -1.937,-0.977 -5.382,0 -6.359,-2.688 -0.973,-3.91 0.262,-8.32 -0.48,-12.468 -2.692,-1.231 -5.871,-1.231 -8.813,-1.231 l -28.859,0.239 c -2.688,-1.45 -5.617,-4.153 -9.289,-2.68 -6.11,3.91 -14.426,2.68 -21.528,2.93 l -21.523,0.246 c -3.91,3.425 -0.977,9.293 -2.195,13.453 -1.473,2.453 -5.383,1.469 -7.825,2.691 -2.207,0.973 -2.699,3.418 -2.461,5.379 0.254,2.449 2.461,3.668 4.664,4.16 1.708,0.977 4.887,-0.73 5.622,1.949 0,7.59 -0.497,14.934 -0.243,22.024 -0.492,4.398 -6.371,1.707 -8.812,3.418 -2.195,1.469 -2.438,4.16 -1.949,6.609 1.949,4.153 6.843,3.168 10.507,4.399 l 0.497,1.222 0.488,12.719 1.226,0.977 33.504,-0.739 c 3.918,0 7.336,-1.707 11.008,-2.929 7.094,5.382 17.61,2.691 26.168,4.16 5.871,-1.231 11.984,-0.246 17.863,-1.469 v 0 0"
         style="fill:#211d1d;fill-opacity:1;fill-rule:nonzero;stroke:none"
         id="path4853"
         inkscape:connector-curvature="0" /><path
         d="m 347.734,425.664 c 2.918,-3.672 0.981,-8.809 1.707,-13.211 3.168,-2.687 10.032,0.254 10.762,-5.859 0.481,-2.453 -0.98,-4.172 -2.199,-5.641 -2.199,-2.199 -6.121,0 -8.074,-2.437 -0.739,-7.344 0,-15.399 0,-23.719 2.203,-1.473 5.133,-1.231 7.586,-2.453 1.218,-1.469 2.437,-2.938 2.437,-4.891 -0.254,-1.961 -1.457,-3.43 -3.43,-4.16 -1.937,-0.977 -5.382,0 -6.359,-2.688 -0.973,-3.91 0.262,-8.32 -0.48,-12.468 -2.692,-1.231 -5.871,-1.231 -8.813,-1.231 l -28.859,0.239 c -2.688,-1.45 -5.617,-4.153 -9.289,-2.68 -6.11,3.91 -14.426,2.68 -21.528,2.93 l -21.523,0.246 c -3.91,3.425 -0.977,9.293 -2.195,13.453 -1.473,2.453 -5.383,1.469 -7.825,2.691 -2.207,0.973 -2.699,3.418 -2.461,5.379 0.254,2.449 2.461,3.668 4.664,4.16 1.708,0.977 4.887,-0.73 5.622,1.949 0,7.59 -0.497,14.934 -0.243,22.024 -0.492,4.398 -6.371,1.707 -8.812,3.418 -2.195,1.469 -2.438,4.16 -1.949,6.609 1.949,4.153 6.843,3.168 10.507,4.399 l 0.497,1.222 0.488,12.719 1.226,0.977 33.504,-0.739 c 3.918,0 7.336,-1.707 11.008,-2.929 7.094,5.382 17.61,2.691 26.168,4.16 5.871,-1.231 11.984,-0.246 17.863,-1.469 z"
         style="fill:none;stroke:#211d1d;stroke-width:1.34478998;stroke-linecap:butt;stroke-linejoin:miter;stroke-miterlimit:4;stroke-dasharray:none;stroke-opacity:1"
         id="path4855"
         inkscape:connector-curvature="0" /><path
         d="m 227.734,426.555 c 1.469,0.246 2.93,-0.985 4.149,-1.719 1.23,-4.641 -0.238,-8.551 0.98,-12.961 3.18,-1.219 7.828,-0.242 9.539,-4.16 0.743,-1.707 0.743,-4.652 -0.488,-6.113 -2.453,-3.18 -8.07,-0.25 -9.781,-3.907 -0.488,-8.812 -0.727,-14.922 0,-23.242 2.453,-2.441 6.851,-0.488 9.047,-3.672 1.222,-1.461 1.715,-3.168 1.222,-5.125 -1.961,-3.183 -6.109,-3.183 -9.539,-3.922 -1.457,-1.222 0,-3.421 -0.73,-5.132 -1.223,-3.18 1.711,-7.098 -1.957,-9.047 -10.031,-1.469 -19.563,0.488 -29.844,-0.25 l -9.781,-0.242 c -2.688,-1.719 -5.867,-4.399 -9.297,-2.45 l -6.109,2.692 c -7.344,-0.242 -14.196,0.25 -21.524,0 -4.887,0.25 -11.738,-1.961 -14.918,2.691 0,3.906 0.731,7.828 -0.254,11.738 -3.664,1.231 -9.777,-0.48 -11.734,4.161 -0.488,1.46 0,3.425 0.484,4.886 2.692,3.922 8.817,0.492 11.504,3.672 l -0.254,10.774 c 0.735,5.125 -0.238,9.285 -0.238,14.179 -3.664,1.469 -10.027,-0.488 -10.758,5.137 -0.492,2.93 1.219,5.379 3.906,5.863 2.446,0.739 5.875,-0.484 7.09,1.719 l 0.735,11.488 c 2.937,4.903 10.039,1.957 14.437,2.692 l 22.25,-0.239 c 3.43,-0.496 6.613,-3.914 10.031,-1.711 13.211,5.375 28.129,0.727 41.832,2.2 v 0 0"
         style="fill:#211d1d;fill-opacity:1;fill-rule:nonzero;stroke:none"
         id="path4857"
         inkscape:connector-curvature="0" /><path
         d="m 227.734,426.555 c 1.469,0.246 2.93,-0.985 4.149,-1.719 1.23,-4.641 -0.238,-8.551 0.98,-12.961 3.18,-1.219 7.828,-0.242 9.539,-4.16 0.743,-1.707 0.743,-4.652 -0.488,-6.113 -2.453,-3.18 -8.07,-0.25 -9.781,-3.907 -0.488,-8.812 -0.727,-14.922 0,-23.242 2.453,-2.441 6.851,-0.488 9.047,-3.672 1.222,-1.461 1.715,-3.168 1.222,-5.125 -1.961,-3.183 -6.109,-3.183 -9.539,-3.922 -1.457,-1.222 0,-3.421 -0.73,-5.132 -1.223,-3.18 1.711,-7.098 -1.957,-9.047 -10.031,-1.469 -19.563,0.488 -29.844,-0.25 l -9.781,-0.242 c -2.688,-1.719 -5.867,-4.399 -9.297,-2.45 l -6.109,2.692 c -7.344,-0.242 -14.196,0.25 -21.524,0 -4.887,0.25 -11.738,-1.961 -14.918,2.691 0,3.906 0.731,7.828 -0.254,11.738 -3.664,1.231 -9.777,-0.48 -11.734,4.161 -0.488,1.46 0,3.425 0.484,4.886 2.692,3.922 8.817,0.492 11.504,3.672 l -0.254,10.774 c 0.735,5.125 -0.238,9.285 -0.238,14.179 -3.664,1.469 -10.027,-0.488 -10.758,5.137 -0.492,2.93 1.219,5.379 3.906,5.863 2.446,0.739 5.875,-0.484 7.09,1.719 l 0.735,11.488 c 2.937,4.903 10.039,1.957 14.437,2.692 l 22.25,-0.239 c 3.43,-0.496 6.613,-3.914 10.031,-1.711 13.211,5.375 28.129,0.727 41.832,2.2 z"
         style="fill:none;stroke:#211d1d;stroke-width:1.34478998;stroke-linecap:butt;stroke-linejoin:miter;stroke-miterlimit:4;stroke-dasharray:none;stroke-opacity:1"
         id="path4859"
         inkscape:connector-curvature="0" /><path
         d="m 62.5156,423.863 c 11.9766,5.133 25.4375,1.461 38.6364,2.203 3.422,-0.742 8.559,1.707 10.762,-1.964 0,-3.907 0,-7.579 0.246,-11.489 1.223,-2.691 5.133,-0.488 7.332,-1.957 1.231,-0.734 2.699,-1.472 2.938,-2.941 0.742,-1.707 0.254,-3.66 -0.727,-5.379 -2.449,-2.684 -5.629,-1.711 -8.808,-2.441 l -0.981,-1.473 c 0.488,-7.098 -1.461,-13.449 0,-20.297 -0.238,-1.469 -0.734,-3.422 0.981,-4.402 3.425,0 6.851,0 9.296,-2.2 0.981,-1.718 0.981,-3.91 0.493,-5.867 -1.469,-7.343 -12.719,0.977 -11.504,-7.593 0,-3.18 0.734,-7.579 -0.489,-10.508 -13.2066,0 -26.6597,0.972 -39.1285,0.238 -2.1992,-1.957 -5.1367,-3.18 -8.3203,-3.426 -2.6914,0.488 -4.6484,1.965 -6.8359,3.426 -11.9922,0.488 -23.7305,0.488 -35.2344,0.734 -3.668,3.188 -0.9766,8.321 -2.1992,12.969 -1.961,2.195 -4.8907,0.488 -7.0899,1.707 -1.707,0.238 -2.19921,1.965 -3.17577,3.18 0,2.691 0,4.89 1.95707,6.601 1.9492,1.469 4.6367,1.219 7.0898,1.469 l 1.2188,1.223 c -0.7305,8.07 1.2226,15.648 -0.4883,24.219 -1.2188,1.707 -3.4219,0.238 -4.8906,1.457 -2.1993,0.496 -4.39849,1.23 -5.14067,3.683 -0.48047,1.949 -0.96875,3.903 0.98828,5.621 2.68359,2.93 7.33199,-0.488 9.78129,2.442 l 0.9726,11.738 c 1.957,3.426 6.6055,1.719 10.0274,1.719 5.8711,1.218 13.2109,0.246 19.5703,0 4.4023,-0.25 8.8008,-0.985 12.7226,-2.692 v 0 0"
         style="fill:#211d1d;fill-opacity:1;fill-rule:nonzero;stroke:none"
         id="path4861"
         inkscape:connector-curvature="0" /><path
         d="m 62.5156,423.863 c 11.9766,5.133 25.4375,1.461 38.6364,2.203 3.422,-0.742 8.559,1.707 10.762,-1.964 0,-3.907 0,-7.579 0.246,-11.489 1.223,-2.691 5.133,-0.488 7.332,-1.957 1.231,-0.734 2.699,-1.472 2.938,-2.941 0.742,-1.707 0.254,-3.66 -0.727,-5.379 -2.449,-2.684 -5.629,-1.711 -8.808,-2.441 l -0.981,-1.473 c 0.488,-7.098 -1.461,-13.449 0,-20.297 -0.238,-1.469 -0.734,-3.422 0.981,-4.402 3.425,0 6.851,0 9.296,-2.2 0.981,-1.718 0.981,-3.91 0.493,-5.867 -1.469,-7.343 -12.719,0.977 -11.504,-7.593 0,-3.18 0.734,-7.579 -0.489,-10.508 -13.2066,0 -26.6597,0.972 -39.1285,0.238 -2.1992,-1.957 -5.1367,-3.18 -8.3203,-3.426 -2.6914,0.488 -4.6484,1.965 -6.8359,3.426 -11.9922,0.488 -23.7305,0.488 -35.2344,0.734 -3.668,3.188 -0.9766,8.321 -2.1992,12.969 -1.961,2.195 -4.8907,0.488 -7.0899,1.707 -1.707,0.238 -2.19921,1.965 -3.17577,3.18 0,2.691 0,4.89 1.95707,6.601 1.9492,1.469 4.6367,1.219 7.0898,1.469 l 1.2188,1.223 c -0.7305,8.07 1.2226,15.648 -0.4883,24.219 -1.2188,1.707 -3.4219,0.238 -4.8906,1.457 -2.1993,0.496 -4.39849,1.23 -5.14067,3.683 -0.48047,1.949 -0.96875,3.903 0.98828,5.621 2.68359,2.93 7.33199,-0.488 9.78129,2.442 l 0.9726,11.738 c 1.957,3.426 6.6055,1.719 10.0274,1.719 5.8711,1.218 13.2109,0.246 19.5703,0 4.4023,-0.25 8.8008,-0.985 12.7226,-2.692 z"
         style="fill:none;stroke:#211d1d;stroke-width:1.34478998;stroke-linecap:butt;stroke-linejoin:miter;stroke-miterlimit:4;stroke-dasharray:none;stroke-opacity:1"
         id="path4863"
         inkscape:connector-curvature="0" /><path
         d="m 60.7969,420.801 0.9844,-2.196 c 0.4921,-16.394 0.4921,-33.019 0.4921,-50.144 l -0.4921,-6.356 c -4.1602,-0.238 -8.3204,1.958 -12.9688,1.469 -4.6484,0.489 -9.7812,-0.488 -13.9414,0.739 -2.4492,5.621 -0.7266,11.25 -1.2188,17.363 0.2422,12.226 0.4922,27.148 0.4922,40.355 0,0.981 1.2227,1.469 1.9493,1.715 8.5585,-0.734 17.8593,1.469 24.7031,-2.945 v 0 0"
         style="fill:#ffffff;fill-opacity:1;fill-rule:nonzero;stroke:none"
         id="path4865"
         inkscape:connector-curvature="0" /><path
         d="m 28.2773,422.277 c -2.2148,-1.714 -5.1445,-4.894 -4.1601,-7.832 0.9648,-20.543 0,-38.882 0.9648,-58.199 l 1.7188,-1.965 c 9.543,0 20.0547,0.985 29.3515,-0.734 0.4922,-0.246 0.4922,-0.973 0.254,-1.473 -2.4532,-0.969 -5.3907,-0.48 -8.0821,-0.48 l -24.9492,0.48 c -1.7109,1.473 -0.9727,4.899 -0.9727,6.852 0,2.445 0.7305,5.387 -1.957,6.847 -3.4336,0.731 -6.8515,-0.25 -9.0508,2.442 1.711,4.902 9.5391,0.988 11.0078,6.371 0.7305,9.047 -0.7382,18.102 -0.25,26.66 -0.9804,4.887 -6.3554,3.418 -9.7812,4.16 -0.4883,0.489 -1.2305,1.215 -0.9766,2.188 2.9414,2.937 8.8008,-0.481 11.0078,3.679 0.9727,3.915 0.2422,7.579 0.7305,11.243 1.2227,1.23 3.4297,1.23 5.1445,0.738 v -0.977 0 0"
         style="fill:#ffffff;fill-opacity:1;fill-rule:nonzero;stroke:none"
         id="path4867"
         inkscape:connector-curvature="0" /><path
         d="m 97.2461,422.031 c 0,-19.82 0,-38.648 -0.2539,-57.968 -9.7813,-0.977 -20.7852,0.734 -30.5664,-1.958 -2.2031,1.958 -0.4922,5.137 -0.9805,7.829 -0.4883,6.359 0,13.449 -0.2422,20.05 0.2422,9.547 -0.4922,20.309 0.2422,29.602 1.4688,2.93 4.8867,3.914 8.0781,3.914 l 22.9805,-0.246 0.7422,-1.223 v 0 0"
         style="fill:#ffffff;fill-opacity:1;fill-rule:nonzero;stroke:none"
         id="path4869"
         inkscape:connector-curvature="0" /><path
         d="m 108.496,422.277 c 0.727,-3.914 -0.973,-9.054 1.469,-12.964 2.437,-1.469 6.109,-0.727 8.558,-1.227 0.969,-0.973 0.731,-2.441 0.243,-3.422 -2.692,-2.691 -8.313,0.742 -9.782,-3.672 0,-9.527 -0.488,-18.828 0.239,-28.617 l 1.468,-1.223 c 3.18,-0.488 7.09,0.743 9.301,-1.707 0.242,-1.472 0,-2.941 -1.469,-3.418 -3.183,-0.742 -7.832,0.965 -9.539,-2.453 -0.742,-3.91 0.489,-7.832 -0.742,-11.738 l -1.711,-0.731 -34.4841,0.489 c -0.7344,0.48 0,0.98 0.2461,1.457 l 3.4297,1.23 27.8793,-0.246 c 2.929,0.731 2.929,4.399 3.179,6.61 -0.25,13.703 0,25.679 -0.25,38.886 -0.238,6.602 0.992,12.965 -0.488,19.321 -0.238,1.461 -2.441,2.441 -2.688,4.16 1.469,0.734 4.168,0.734 5.141,-0.735 v 0 0"
         style="fill:#ffffff;fill-opacity:1;fill-rule:nonzero;stroke:none"
         id="path4871"
         inkscape:connector-curvature="0" /><path
         d="m 266.004,422.516 c -0.492,-1.953 -2.93,-3.422 -3.672,-5.371 0.25,-20.059 0,-41.832 0.742,-62.622 l 1.699,-0.976 c 10.77,-0.246 22.262,2.195 31.559,-2.203 0.504,-0.239 0.25,-0.239 0,-0.489 -11.738,0.25 -23.48,-0.734 -34.973,0.25 l -0.972,1.219 c -0.496,4.399 0.484,8.559 -1.473,12.473 -2.687,2.445 -10.519,-0.734 -8.562,4.894 2.933,2.204 7.589,-0.734 9.3,2.93 0,10.27 0.493,19.332 -0.25,28.863 -2.203,2.942 -6.363,0.977 -9.293,1.711 -0.972,0.981 -1.714,2.45 -0.734,3.672 3.18,2.684 12.469,-0.734 10.77,6.844 0.968,3.184 -1.485,9.301 2.929,9.543 0.977,0 2.199,0.246 2.93,-0.738 v 0 0"
         style="fill:#ffffff;fill-opacity:1;fill-rule:nonzero;stroke:none"
         id="path4873"
         inkscape:connector-curvature="0" /><path
         d="m 345.742,422.031 c 0.981,-4.648 -0.969,-9.297 1.711,-13.445 2.934,-0.742 7.578,0.965 9.051,-1.965 -0.25,-5.867 -8.313,-1.215 -10.031,-5.867 0.738,-9.289 -0.731,-16.883 0.25,-26.902 -0.981,-0.735 -1.231,-1.719 -0.496,-2.7 2.699,-2.195 6.125,1.469 8.804,-0.964 1.711,-0.497 0.742,-1.973 0.742,-2.946 -2.199,-3.179 -7.582,0.492 -9.05,-3.668 l -0.496,-12.23 -1.715,-0.727 -32.52,0.246 c -0.488,0.489 -0.25,0.731 0.242,0.973 l 3.918,1.465 h 24.692 c 1.23,0.246 2.949,1.222 2.949,2.945 -0.25,19.317 -0.496,39.371 -0.496,60.41 l -2.934,5.86 c 1.219,1.23 4.653,1.468 5.379,-0.485 v 0 0"
         style="fill:#ffffff;fill-opacity:1;fill-rule:nonzero;stroke:none"
         id="path4875"
         inkscape:connector-curvature="0" /><path
         d="m 269.672,414.445 c 0,-17.121 0,-35.211 0,-52.578 -0.481,-1.476 -2.195,-2.203 -3.18,-3.183 l -0.98,0.73 c -0.239,5.629 0.238,11.988 -0.239,17.367 v 4.16 c -0.25,11.493 -0.25,24.211 0.239,35.954 0.98,0.976 1.965,2.929 3.191,3.418 0.969,-2.196 0.488,-3.657 0.969,-5.868 v 0 0"
         style="fill:#ffffff;fill-opacity:1;fill-rule:nonzero;stroke:none"
         id="path4877"
         inkscape:connector-curvature="0" /><path
         d="m 341.094,417.125 c -0.489,-13.691 -0.25,-26.652 0.25,-39.609 -0.25,-6.114 -0.25,-11.489 -0.25,-17.125 -0.25,-0.489 -0.25,-0.727 -0.731,-0.977 -4.16,1.711 -2.687,6.359 -2.941,10.031 0.254,5.141 -0.488,11 0.492,16.141 l -0.73,1.719 0.238,32.031 c 0.98,2.207 2.941,-0.981 3.672,-2.211 v 0 0"
         style="fill:#ffffff;fill-opacity:1;fill-rule:nonzero;stroke:none"
         id="path4879"
         inkscape:connector-curvature="0" /><path
         d="m 30.7109,420.074 c 0.9844,-19.808 -0.2461,-38.89 0.2422,-57.719 -0.2422,-0.984 -1.2187,-2.203 -2.4375,-2.203 -1.4687,6.114 -1.2226,11.981 -0.7343,18.102 -0.4883,12.469 -0.2461,26.41 -0.2461,38.891 0.4882,1.218 1.957,2.441 3.1757,2.929 v 0 0"
         style="fill:#ffffff;fill-opacity:1;fill-rule:nonzero;stroke:none"
         id="path4881"
         inkscape:connector-curvature="0" /><path
         d="m 103.602,417.871 c -0.247,-19.808 0.242,-39.379 -0.489,-57.226 -0.492,-0.981 -1.468,0.238 -2.203,0.726 -1.2264,2.942 -0.246,6.602 -0.246,9.531 -0.7343,15.911 0,32.051 0,48.192 0.981,1.219 2.449,-0.242 2.938,-1.223 v 0 0"
         style="fill:#ffffff;fill-opacity:1;fill-rule:nonzero;stroke:none"
         id="path4883"
         inkscape:connector-curvature="0" /><path
         d="m 305.141,392.926 c -0.489,-1.223 -2.688,-1.223 -3.907,-0.735 l -1.23,0.497 c 0.738,2.683 0,5.867 2.207,7.816 2.191,-1.461 1.953,-4.887 2.93,-7.578 v 0 0"
         style="fill:#ffffff;fill-opacity:1;fill-rule:nonzero;stroke:none"
         id="path4885"
         inkscape:connector-curvature="0" /><path
         d="m 100.91,357.953 c -0.734,-1.476 -2.9373,-0.742 -4.4061,-1.23 h -7.8242 c -6.3555,0.25 -12.7188,0.73 -18.3477,-0.477 -0.9687,0.231 -1.9492,0.965 -1.9492,2.188 0.7344,2.211 3.418,1.468 5.3828,2.211 7.5782,-0.254 16.6289,0.238 23.9688,0 1.2187,-0.493 2.4416,-1.469 3.1756,-2.692 v 0 0"
         style="fill:#ffffff;fill-opacity:1;fill-rule:nonzero;stroke:none"
         id="path4887"
         inkscape:connector-curvature="0" /><path
         d="m 59.8242,358.926 c 0.2383,-1.219 -0.9804,-2.449 -2.2031,-2.934 -7.8281,2.203 -16.3867,0.731 -24.707,1.715 l -0.2383,0.246 c 0.4883,1.461 1.707,2.692 3.418,2.692 8.3203,0 16.3906,0 23.7304,-1.719 v 0 0"
         style="fill:#ffffff;fill-opacity:1;fill-rule:nonzero;stroke:none"
         id="path4889"
         inkscape:connector-curvature="0" /><path
         d="m 300.004,358.195 c 0.738,-0.488 0.738,-1.718 0,-1.949 -2.93,-3.433 -6.602,0.727 -10.524,0 -6.347,0.727 -13.445,0 -19.808,0.727 1.711,5.382 9.293,2.203 13.461,3.179 5.621,-0.738 11.976,0.973 16.871,-1.957 v 0 0"
         style="fill:#ffffff;fill-opacity:1;fill-rule:nonzero;stroke:none"
         id="path4891"
         inkscape:connector-curvature="0" /><path
         d="m 335.961,359.414 c 1.223,-0.73 2.441,-1.961 2.691,-3.168 -10.031,-1.23 -19.82,1.207 -29.351,-1.48 -1.469,0.25 -1.957,1.957 -1.469,2.941 1.953,2.195 5.133,1.707 8.07,2.195 l 20.059,-0.488 v 0 0"
         style="fill:#ffffff;fill-opacity:1;fill-rule:nonzero;stroke:none"
         id="path4893"
         inkscape:connector-curvature="0" /><path
         d="m 67.8945,354.281 c 0.4883,-1.957 0.2383,-4.398 -1.4687,-5.39 -0.9805,-1.215 -2.9297,-1.457 -4.3985,-0.727 -1.4765,0.238 -1.7265,1.957 -1.9648,3.18 -0.4883,2.691 2.2109,3.672 3.6719,5.629 1.957,-0.25 3.1797,-1.469 4.1601,-2.692 v 0 0"
         style="fill:#ffffff;fill-opacity:1;fill-rule:nonzero;stroke:none"
         id="path4895"
         inkscape:connector-curvature="0" /><path
         d="m 307.094,352.813 c 0.25,-2.196 0.25,-5.379 -2.692,-5.379 -1.949,-0.243 -3.672,0.73 -4.148,2.449 -0.488,2.441 0.98,4.64 2.687,5.621 2.2,0.238 3.18,-1.469 4.153,-2.691 v 0 0"
         style="fill:#ffffff;fill-opacity:1;fill-rule:nonzero;stroke:none"
         id="path4897"
         inkscape:connector-curvature="0" /><path
         d="m 217.703,421.543 c -0.25,-19.082 0.238,-38.652 -0.25,-57.73 l -0.98,-0.477 c -10.512,-0.981 -20.782,1.707 -30.321,-1.723 -1.711,0.981 -0.25,3.91 -0.738,5.629 0,16.629 0,33.512 0,50.875 0,1.707 1.223,3.176 2.691,3.664 2.692,1.965 6.356,1.223 9.79,1.711 l 19.316,-0.488 0.492,-1.461 v 0 0"
         style="fill:#ffffff;fill-opacity:1;fill-rule:nonzero;stroke:none"
         id="path4899"
         inkscape:connector-curvature="0" /><path
         d="m 229.203,422.031 c 0,-4.41 -0.25,-8.32 0.727,-12.718 2.933,-2.692 11.25,1.218 9.531,-5.375 -2.688,-1.727 -6.348,-0.497 -9.285,-0.985 l -0.735,-0.98 c -1.23,-9.782 0.735,-19.809 0,-28.618 0.25,-0.98 0.735,-2.691 2.204,-2.929 2.691,-0.238 6.851,1.707 7.816,-1.715 -0.477,-5.879 -8.055,-0.496 -10.02,-5.137 -0.738,-4.398 1.223,-8.308 -0.488,-12.469 l -1.219,-0.742 c -12.48,0.254 -24.711,0.254 -36.453,0.5 -0.484,0.242 -0.238,0.973 0.25,1.211 l 2.203,1.227 c 9.782,0.98 20.547,0 30.821,0.98 1.461,0.242 2.691,1.461 2.437,2.93 0,18.59 0.254,37.91 0.254,58.703 -0.492,2.938 -3.433,4.649 -3.922,7.34 1.707,0 4.887,0.98 5.879,-1.223 v 0 0"
         style="fill:#ffffff;fill-opacity:1;fill-rule:nonzero;stroke:none"
         id="path4901"
         inkscape:connector-curvature="0" /><path
         d="m 147.992,423.012 c -0.488,-2.211 -2.453,-2.938 -3.418,-4.649 -1.469,-3.918 0.239,-7.832 -0.492,-11.992 0.242,-16.867 0,-32.777 0.242,-49.398 0,-1.231 0.977,-2.692 2.199,-2.938 l 26.18,-0.488 c 1.461,-0.246 3.168,-0.734 4.152,-1.711 -0.484,-1.473 -2.441,-0.981 -3.671,-1.219 -9.782,0.238 -20.297,-0.496 -29.829,0.727 l -0.984,0.73 c -0.25,4.403 0.238,9.051 -1.719,12.969 -2.929,1.223 -6.601,0 -9.781,0.973 -1.469,0.738 -0.98,2.695 0,3.675 3.18,1.711 9.293,-0.98 11.012,3.426 -0.246,9.535 0.488,18.586 0,28.367 -2.699,3.922 -8.32,0.239 -10.762,3.922 0.973,5.621 8.801,0.727 11,5.375 l 0.731,11.496 c 1.472,1.469 3.429,0.977 5.14,0.735 v 0 0"
         style="fill:#ffffff;fill-opacity:1;fill-rule:nonzero;stroke:none"
         id="path4903"
         inkscape:connector-curvature="0" /><path
         d="m 151.664,419.586 c 0.727,-16.879 -0.98,-32.043 0,-48.922 -1.469,-3.91 1.707,-9.539 -3.922,-10.512 -0.969,16.871 -0.238,34.969 -0.73,53.309 -0.489,2.941 1.23,5.633 3.672,7.102 l 0.98,-0.977 v 0 0"
         style="fill:#ffffff;fill-opacity:1;fill-rule:nonzero;stroke:none"
         id="path4905"
         inkscape:connector-curvature="0" /><path
         d="m 224.301,416.656 c -0.238,-18.593 0.492,-38.652 -0.727,-56.754 -0.98,-0.238 -2.203,0.981 -2.453,1.965 -0.25,7.578 -0.976,15.156 -0.488,23.227 0.488,10.523 -0.742,22.992 0.488,33.758 1.223,0.734 3.18,-0.735 3.18,-2.196 v 0 0"
         style="fill:#ffffff;fill-opacity:1;fill-rule:nonzero;stroke:none"
         id="path4907"
         inkscape:connector-curvature="0" /><path
         d="m 179.547,358.926 c 0.976,-0.242 2.207,-1.219 1.469,-2.449 l -1.965,-1.711 c -8.559,3.187 -19.317,0.976 -28.367,2.445 0.73,1.223 1.468,2.453 2.687,3.434 8.563,-0.743 17.863,0.48 26.176,-1.719 v 0 0"
         style="fill:#ffffff;fill-opacity:1;fill-rule:nonzero;stroke:none"
         id="path4909"
         inkscape:connector-curvature="0" /><path
         d="m 218.434,360.152 c 1.226,-0.738 2.687,-1.957 2.687,-3.179 l -1.23,-0.496 c -10.258,-0.231 -20.778,1.23 -30.317,-1.211 -1.469,-0.25 -3.179,0 -3.422,1.707 0.981,2.203 3.911,2.929 6.352,3.179 8.809,0.731 17.367,0 25.93,0 v 0 0"
         style="fill:#ffffff;fill-opacity:1;fill-rule:nonzero;stroke:none"
         id="path4911"
         inkscape:connector-curvature="0" /><path
         d="m 186.883,352.074 c 0,-1.953 -0.246,-4.398 -2.442,-4.398 -1.707,-0.242 -4.41,0 -4.41,2.445 0.492,1.715 1.961,3.18 3.672,4.16 1.711,0.485 2.692,-1.23 3.18,-2.207 v 0 0"
         style="fill:#ffffff;fill-opacity:1;fill-rule:nonzero;stroke:none"
         id="path4913"
         inkscape:connector-curvature="0" /><path
         d="m 181.992,382.891 c 0.973,9.797 0.242,20.8 0.492,30.093 0,2.93 0.25,6.352 -1.961,8.309 -7.101,3.18 -16.628,1.473 -24.699,1.961 -0.492,-0.25 -1.469,0.246 -1.23,-0.738 0,-19.321 -0.239,-37.422 -0.239,-56.489 l 0.477,-2.214 c 5.879,-0.981 11.738,-0.477 17.871,-0.477 3.168,-0.504 6.348,-1.469 9.289,-1.965 0.242,6.602 0.742,11.746 0.242,18.102 l -0.242,3.418 v 0"
         style="fill:#ffffff;fill-opacity:1;fill-rule:nonzero;stroke:none"
         id="path4915"
         inkscape:connector-curvature="0" /><path
         d="m 171.953,395.617 c -1.699,0 -4.39,-1.222 -4.879,0.977 0.239,3.183 -1.219,7.344 0,10.273 2.199,1.719 5.629,0.977 7.328,-1.222 0.993,-1.707 0.993,-3.922 0.993,-5.868 -0.993,-1.714 -1.469,-3.672 -3.442,-4.16 z m 7.594,-11.984 c -2.934,2.441 -3.676,6.117 -6.125,9.055 0.98,1.453 2.691,1.707 3.93,2.929 1.949,1.957 3.902,4.649 2.929,7.578 -0.25,2.45 -1.476,4.891 -3.91,6.118 -5.137,1.96 -11.75,1.218 -16.891,0.73 -0.964,-0.492 -1.218,-1.457 -0.488,-2.199 1.957,-0.731 2.692,-2.199 2.93,-3.906 -0.238,-6.614 -0.238,-13.215 -0.973,-19.825 l -2.687,-2.929 c 2.687,-2.45 6.359,-0.489 10.281,-1.231 0.969,1.723 -1.707,2.938 -2.211,4.902 0.504,1.958 0,4.649 1.231,6.356 3.671,-3.18 4.89,-8.32 9.292,-11.258 l 5.739,-0.402 -0.141,3.101 c -0.738,-0.488 -2.172,0.731 -2.906,0.981 v 0"
         style="fill:#211d1d;fill-opacity:1;fill-rule:nonzero;stroke:none"
         id="path4917"
         inkscape:connector-curvature="0" /><path
         d="m 334.734,416.402 c 0,2.203 0.25,4.903 -0.98,6.852 l -8.801,0.246 c -6.359,-0.977 -13.449,0.973 -18.594,-2.195 -2.433,-2.942 -1.218,-6.364 -1.707,-9.789 0.602,-2.071 1.192,-4.161 1.774,-6.25 l -1.125,-2.594 -3.778,0.683 -0.972,2.129 c 0.426,1.508 0.84,3.008 1.164,4.559 -0.242,4.16 1.226,10.52 -4.152,12.234 -8.083,0.735 -15.411,0.977 -23.969,0.977 -0.489,0 -1.231,-0.242 -1.473,-0.731 0.242,-18.832 0,-34.98 0.242,-53.566 0,-2.203 -0.726,-5.133 1.719,-6.113 7.078,0.98 13.449,-0.25 20.301,0.242 2.691,0 4.398,-2.441 7.09,-1.715 0.738,7.586 0.738,16.633 0.488,24.953 -0.227,0.68 0.113,2.321 -0.977,2.586 l 0.032,1.574 4.207,-0.5 0.429,-1.41 c -0.148,-0.121 -0.265,-0.301 -0.511,-0.543 l -0.489,-25.187 c 0.25,-0.731 0.25,-2.692 1.707,-2.438 7.586,4.399 16.883,1.461 25.688,2.438 l 1.957,0.73 c 0.98,4.16 0.488,19.078 0.488,19.078 0.492,11.012 0.242,22.012 0.242,33.75 v 0"
         style="fill:#ffffff;fill-opacity:1;fill-rule:nonzero;stroke:none"
         id="path4919"
         inkscape:connector-curvature="0" /><path
         d="m 301.234,392.191 -1.23,0.497 c 0.738,2.683 0,5.867 2.207,7.816 2.191,-1.461 1.953,-4.887 2.93,-7.578 -0.489,-1.223 -2.688,-1.223 -3.907,-0.735 z m 5.125,-3.418 c 0.985,-1.468 1.715,-2.937 1.473,-4.89 l -1.961,-2.699 1.223,-0.969 c 2.937,0.23 6.851,-0.742 9.551,0.48 -0.743,1.469 -2.454,1.957 -3.434,2.938 -3.406,9.008 -5.848,18.512 -8.527,27.769 l -2.969,-1.359 c -1.711,-8.32 -5.133,-15.902 -7.094,-24.457 -0.476,-1.703 -2.199,-1.953 -3.426,-2.934 -1.715,-0.488 -2.441,1.469 -3.172,2.45 -0.25,7.339 0.731,13.453 0.239,21.281 -0.239,1.219 1.218,2.691 2.449,1.461 1.965,-0.977 1.711,-3.418 2.453,-5.129 0.477,-0.742 1.707,-0.742 1.945,0.488 l 1.223,7.578 c -0.98,2.453 -3.168,-0.25 -5.137,0 -3.664,0.246 -8.804,-0.738 -12.23,1.461 -2.93,-0.969 -2.192,-5.129 -2.684,-7.816 -0.246,-0.488 0,-0.985 0.242,-1.223 2.442,1.461 3.672,5.383 7.09,4.399 l 0.246,-7.336 -0.726,-15.891 c -0.981,-1.23 -3.422,-1.723 -3.188,-3.434 4.168,-1.218 9.297,0 13.457,-0.496 2.442,-0.23 5.133,-0.722 7.09,0 0.492,0.496 0.25,1.231 -0.238,1.719 -1.473,0.727 -3.18,1.957 -2.691,3.922 0.734,1.219 0.972,3.664 3.179,2.93 0.531,0 0.762,-0.293 0.91,-0.672 l 3.489,-0.41 v 0.097 c 0.492,0.496 0.492,0.742 1.218,0.742 v 0"
         style="fill:#211d1d;fill-opacity:1;fill-rule:nonzero;stroke:none"
         id="path4921"
         inkscape:connector-curvature="0" /><path
         d="m 328.703,408.832 c 0,-1.738 1.25,-4.988 -0.254,-6.23 -1.734,1.492 -1.976,2.98 -4.722,3.73 -1.504,0 -2.997,-0.246 -3.243,-1.996 -0.492,-5.242 4.739,-5.234 7.719,-8.719 2.746,-2.746 3.996,-7.234 2.746,-10.734 -1.156,-2.797 -2.5,-4.492 -5.238,-4.492 -2.488,-0.496 -4.238,1.25 -6.238,0.265 -0.489,0 -1.489,-0.515 -1.996,0.239 l 0.257,9.73 c 0.25,0.5 0.739,0.746 1.25,0.746 1.489,-3.246 0.477,-6.957 4.969,-7.215 1.5,0.258 2.731,0.407 2.981,2.407 0.496,8.73 -10.957,6.554 -10.7,15.542 0.25,1.989 0.5,3.739 1.5,5.489 1.993,3.242 6.489,1.238 9.465,3.242 1.25,0.496 1.25,-1.25 1.504,-2.004 v 0 0"
         style="fill:#211d1d;fill-opacity:1;fill-rule:nonzero;stroke:none"
         id="path4923"
         inkscape:connector-curvature="0" /><path
         d="m 205.961,409.313 c -2.445,-1.227 -5.137,-3.18 -4.41,-6.606 -0.727,-5.871 -0.477,-11.984 -0.246,-18.332 l 3.929,-3.434 -0.25,-0.496 c -4.16,0 -8.07,-0.722 -12.23,0 -1.711,1.957 2.199,2.938 2.937,4.41 0.723,6.848 1.461,13.938 0.723,21.516 -0.723,2.215 -4.402,1.223 -3.422,3.672 3.672,0.488 8.559,0.488 12.242,0 l 0.727,-0.73 v 0 0"
         style="fill:#211d1d;fill-opacity:1;fill-rule:nonzero;stroke:none"
         id="path4925"
         inkscape:connector-curvature="0" /><path
         d="m 87.2109,404.664 c -2.4453,-2.941 -2.9375,2.691 -5.375,2.93 -1.4687,0.25 -3.6718,0.742 -4.8945,-0.481 -0.4883,-3.175 -0.9805,-6.121 0,-9.05 0.9844,-0.739 2.9297,-0.489 4.1602,-0.489 1.4609,0.981 2.2031,3.672 4.1523,3.418 1.2305,-1.215 -0.4883,-3.179 0.25,-4.398 -0.4883,-1.961 1.2188,-4.16 -0.9766,-4.891 -1.4765,0.731 -2.2031,3.418 -4.1601,3.418 l -3.4258,-0.238 c -1.2187,-4.41 -0.7344,-8.32 0,-12.481 1.9649,-1.957 4.4024,-0.238 6.6016,-0.238 3.1797,0.727 2.4531,5.141 5.1367,4.649 0.7344,-1.719 0.9726,-4.411 0.4961,-6.368 l -1.4727,-0.972 -17.3711,0.25 c -0.7265,0.23 -2.4375,0.23 -1.6992,1.461 5.6211,3.429 2.4414,10.027 3.168,15.41 -0.7266,3.91 2.2109,9.777 -2.9297,12.23 -0.2383,1.469 1.4609,0.981 1.9531,1.469 4.4102,0 10.2774,-1.707 13.7031,1.949 2.6836,-1.461 2.4454,-4.887 2.6836,-7.578 v 0 0"
         style="fill:#211d1d;fill-opacity:1;fill-rule:nonzero;stroke:none"
         id="path4927"
         inkscape:connector-curvature="0" /><path
         d="m 60.5508,408.586 c -4.8985,-3.922 -5.1367,-10.773 -7.3399,-16.395 -1.9453,-3.175 -0.9648,-7.816 -4.1484,-10.515 -1.2305,-0.492 -2.207,0.726 -2.4453,1.707 -1.7149,7.578 -3.9219,15.172 -6.6016,22.262 -0.25,2.199 -5.3828,2.691 -2.4531,4.398 3.6719,0.488 6.3633,-0.492 9.7813,-0.238 0.7421,-2.211 -2.6915,-3.434 -1.711,-6.114 2.1992,-3.187 1.4727,-8.074 4.1602,-11.257 l 1.2226,1.23 c 0.25,5.617 6.6055,10.762 1.2305,15.649 1.2148,2.203 4.8867,0.73 7.3281,1.468 0.4883,-0.488 2.2071,-0.976 0.9766,-2.195 v 0 0"
         style="fill:#211d1d;fill-opacity:1;fill-rule:nonzero;stroke:none"
         id="path4929"
         inkscape:connector-curvature="0" /><path
         d="M 2328.39,65.6445 H 2370 V 191.652 h -41.61 z m 50.37,-17.5195 h -59.13 c -4.84,0 -8.76,3.9258 -8.76,8.7617 V 191.652 H 2168.52 V 56.8867 c 0,-4.8359 -3.91,-8.7617 -8.76,-8.7617 h -58.39 c -4.84,0 -8.76,3.9258 -8.76,8.7617 V 374.133 c 0,4.832 3.92,8.758 8.76,8.758 h 58.39 c 4.85,0 8.76,-3.926 8.76,-8.758 v -116.5 c 0,-4.84 -3.91,-8.762 -8.76,-8.762 -4.83,0 -8.76,3.922 -8.76,8.762 v 107.738 h -40.87 V 65.6445 H 2151 V 200.41 c 0,4.844 3.93,8.762 8.76,8.762 h 151.11 v 164.961 c 0,4.832 3.92,8.758 8.76,8.758 h 59.22 c 4.84,0 8.76,-3.926 8.76,-8.758 0,-4.84 -3.92,-8.762 -8.76,-8.762 h -50.46 V 209.172 h 50.37 c 4.83,0 8.76,-3.918 8.76,-8.762 V 56.8867 c 0,-4.8359 -3.93,-8.7617 -8.76,-8.7617 z m 672.67,213.844 30.82,-35.336 117.52,138.734 h -58.16 z m 84.38,-196.3245 h 63.6 l -116.96,134.1135 -30.71,-36.25 z m 82.86,-17.5195 h -86.87 c -2.56,0 -4.99,1.1133 -6.65,3.0586 l -91.56,106.5704 c -2.81,3.273 -2.83,8.098 -0.05,11.379 l 37.26,43.984 -30.99,35.528 -159.59,-183.0005 h 68 c 4.85,0 8.76,-3.9257 8.76,-8.75 0,-4.8437 -3.91,-8.7695 -8.76,-8.7695 h -87.25 c -3.44,0 -6.56,2.0117 -7.98,5.1367 -1.43,3.125 -0.89,6.7969 1.37,9.375 l 173.83,199.3323 -90.18,103.398 h -58.8 l 82.94,-97.961 c 3.13,-3.691 2.68,-9.211 -1.01,-12.347 -3.68,-3.133 -9.21,-2.676 -12.34,1.007 l -95.2,112.395 c -2.2,2.594 -2.7,6.246 -1.28,9.352 1.45,3.089 4.54,5.078 7.95,5.078 h 81.71 c 2.54,0 4.94,-1.098 6.6,-3.008 l 91.23,-104.59 91.21,104.59 c 1.67,1.91 4.08,3.008 6.61,3.008 h 81.04 c 3.42,0 6.51,-1.989 7.95,-5.078 1.44,-3.102 0.95,-6.743 -1.26,-9.344 L 3093.9,213.273 3225.27,62.6367 c 2.27,-2.5781 2.81,-6.25 1.38,-9.375 -1.42,-3.125 -4.54,-5.1367 -7.98,-5.1367 z m -472.63,17.5195 h 41.59 V 286.133 l -41.59,-49.227 z m 50.34,-17.5195 h -59.1 c -4.84,0 -8.76,3.9258 -8.76,8.7695 V 216.152 l -79.47,-94.109 c -1.72,-2.031 -4.31,-3.164 -6.93,-3.098 -2.67,0.071 -5.15,1.36 -6.75,3.477 l -170.4,225.57 V 65.6445 h 41.61 V 200.695 c 0,4.832 3.92,8.758 8.76,8.758 4.83,0 8.76,-3.926 8.76,-8.758 V 56.8945 c 0,-4.8437 -3.93,-8.7695 -8.76,-8.7695 h -59.12 c -4.84,0 -8.77,3.9258 -8.77,8.7695 V 374.125 c 0,3.766 2.41,7.109 5.98,8.309 3.55,1.195 7.5,-0.02 9.77,-3.024 l 179.53,-237.68 85.79,101.586 v 130.809 c 0,4.84 3.92,8.766 8.76,8.766 h 59.1 c 4.84,0 8.76,-3.926 8.76,-8.766 0,-4.832 -3.92,-8.758 -8.76,-8.758 h -50.34 V 264.055 l 43.65,51.683 c 2.37,2.801 6.24,3.832 9.69,2.575 3.46,-1.266 5.76,-4.551 5.76,-8.235 V 56.8945 c 0,-4.8437 -3.92,-8.7695 -8.76,-8.7695"
         style="fill:#100f0d;fill-opacity:1;fill-rule:nonzero;stroke:none"
         id="path4931"
         inkscape:connector-curvature="0" /></g></g></svg>